<svg xmlns="http://www.w3.org/2000/svg" viewBox="0 0 354 336.14"><defs><style>.cls-1{fill:#ff0;}</style></defs><g id="Layer_2" data-name="Layer 2"><g id="Layer_2-2" data-name="Layer 2"><rect x="1" y="68.07" width="63" height="22" rx="11"/><rect x="80" y="68.07" width="42" height="22" rx="11"/><rect x="22" y="126.07" width="91" height="21" rx="10.5"/><rect x="54" y="183.07" width="58" height="21" rx="10.5"/><rect y="183.07" width="41" height="21" rx="10.5"/><rect y="239.07" width="64" height="21" rx="10.5"/><rect x="80" y="239.07" width="32" height="21" rx="10.5"/><path d="M320.14,68.07H144V87.4s32,1.67,66,30.67c0,0,39-35,86-32V210s-54,4.12-84,33.12c0,0-31-25.75-68-29.38v5.62s33,3.76,54,22.76c0,0-19-11.53-54-11.53v29.53H261.59l57.41,52s7,5,6-2l-9-50h11s27-6,27-37V98S350.28,68.07,320.14,68.07ZM319,231.7a2,2,0,0,1-2.34,2c-10-1.74-50.3-7.35-93.66,7.4,0,0,35-27,80-24V111.22a5,5,0,0,1,4.55-5,18.82,18.82,0,0,1,8.44,1.17,4.94,4.94,0,0,1,3,4.59Z"/><path d="M145,108.33v9.53s30,4.21,49,18.21c0,0,4,3,7-1a5.63,5.63,0,0,0-2-7S182,112.6,145,108.33Z"/><path d="M145,132.33v9.53s30,4.21,49,18.21c0,0,4,3,7-1a5.63,5.63,0,0,0-2-7S182,136.6,145,132.33Z"/><path d="M145,157.33v9.53s30,4.21,49,18.21c0,0,4,3,7-1a5.63,5.63,0,0,0-2-7S182,161.6,145,157.33Z"/><path d="M145,181.33v9.53s30,4.21,49,18.21c0,0,4,3,7-1a5.63,5.63,0,0,0-2-7S182,185.6,145,181.33Z"/><path d="M280.5,108.33v9.53s-31.33,4.21-51.17,18.21c0,0-4.18,3-7.31-1a5.47,5.47,0,0,1,2.09-7S241.86,112.6,280.5,108.33Z"/><path d="M280.5,132.33v9.53s-31.33,4.21-51.17,18.21c0,0-4.18,3-7.31-1a5.47,5.47,0,0,1,2.09-7S241.86,136.6,280.5,132.33Z"/><path d="M280.5,157.33v9.53s-31.33,4.21-51.17,18.21c0,0-4.18,3-7.31-1a5.47,5.47,0,0,1,2.09-7S241.86,161.6,280.5,157.33Z"/><path d="M280.5,181.33v9.53s-31.33,4.21-51.17,18.21c0,0-4.18,3-7.31-1a5.47,5.47,0,0,1,2.09-7S241.86,185.6,280.5,181.33Z"/><path class="cls-1" d="M239,267.07l-110,20v-246l108.5,20.5h18.13V42.12s-.63-10-13.63-13l-110-27s-27-10-29,14v304s1,21,24,15l115-29s14-3,14-15V266.61ZM183,24.14c4.21.38,8,4.33,8.54,8.91s-2.4,8.45-6.76,8.31-8.59-4.35-9-9.29S178.61,23.74,183,24.14Zm14.18,279.08-23.94,6.43c-5.2,1.4-9.76-2-9.89-7.51a11.72,11.72,0,0,1,9.17-11.46l23.4-4.13c3.81-.67,7.12,2.33,7.49,6.7h0C203.76,297.68,201,302.17,197.14,303.22Z"/></g></g></svg>