<svg xmlns="http://www.w3.org/2000/svg" xmlns:xlink="http://www.w3.org/1999/xlink" viewBox="0 0 886.6 833.96"><defs><style>.cls-1{fill:#001522;}.cls-2{fill:none;}.cls-3{isolation:isolate;}.cls-4{clip-path:url(#clip-path);}.cls-5{mix-blend-mode:screen;fill:url(#radial-gradient);}.cls-6{fill:#5aad00;}.cls-7{mix-blend-mode:color-burn;}.cls-8{clip-path:url(#clip-path-2);}.cls-9{fill:#4d4d4d;}.cls-10{fill:#525252;}.cls-11{fill:#585858;}.cls-12{fill:#5e5e5e;}.cls-13{fill:#646464;}.cls-14{fill:#6a6a6a;}.cls-15{fill:#707070;}.cls-16{fill:#767676;}.cls-17{fill:#7c7c7c;}.cls-18{fill:#828282;}.cls-19{fill:#888;}.cls-20{fill:#8e8e8e;}.cls-21{fill:#949494;}.cls-22{fill:#9a9a9a;}.cls-23{fill:#a0a0a0;}.cls-24{fill:#a6a6a6;}.cls-25{fill:#acacac;}.cls-26{fill:#b2b2b2;}.cls-27{fill:#b8b8b8;}.cls-28{fill:#bebebe;}.cls-29{fill:#c3c3c3;}.cls-30{fill:#c9c9c9;}.cls-31{fill:#cfcfcf;}.cls-32{fill:#d5d5d5;}.cls-33{fill:#dbdbdb;}.cls-34{fill:#e1e1e1;}.cls-35{fill:#e7e7e7;}.cls-36{fill:#ededed;}.cls-37{fill:#f3f3f3;}.cls-38{fill:#f9f9f9;}.cls-39{fill:#fff;}.cls-40{fill:#fe6a00;}</style><clipPath id="clip-path" transform="translate(81.86 37.64)"><rect id="SVGID" class="cls-1" width="782.24" height="723.76"/></clipPath><radialGradient id="radial-gradient" cx="226.95" cy="-787.26" r="642.68" gradientTransform="matrix(1.65, 0, 0, -1.05, 0, 15.03)" gradientUnits="userSpaceOnUse"><stop offset="0.25" stop-color="#123c00"/><stop offset="0.36" stop-color="#264300"/><stop offset="0.52" stop-color="#394a00"/><stop offset="0.62" stop-color="#404d00"/><stop offset="0.7" stop-color="#2d3600"/><stop offset="0.82" stop-color="#141900"/><stop offset="0.93" stop-color="#050600"/><stop offset="1"/></radialGradient><clipPath id="clip-path-2" transform="translate(81.86 37.64)"><polygon id="SVGID-2" data-name="SVGID" class="cls-2" points="-6.06 727.99 149.13 473.57 281.1 495.99 410.08 296.14 526.4 321.79 630.57 134.43 579.27 112.91 709.12 50.43 741.55 172.37 696.57 153.71 610.69 421.18 479.36 391.43 394.75 613.86 286.69 596.73 224.86 737.48 -6.06 727.99"/></clipPath></defs><g class="cls-3"><g id="Layer_2" data-name="Layer 2"><g id="Layer_1-2" data-name="Layer 1"><rect id="SVGID-3" data-name="SVGID" class="cls-1" x="81.86" y="37.64" width="782.24" height="723.76"/><g class="cls-4"><path class="cls-5" d="M804.74-37.64H-33.88V750.74H804.74v-.9h-11V730.55h11v-.9h-11V710.36h11v-.9h-11V690.17h11v-.9h-11V670h11v-.9h-11V649.79h11v-.91h-11V629.59h11v-.9h-11V609.4h11v-.9h-11V589.21h11v-.9h-11V569h11v-.9h-11V548.83h11v-.9h-11v-19.3h11v-.9h-11V508.44h11v-.9h-11V488.25h11v-.9h-11V468.06h11v-.9h-11V447.87h11V447h-11v-19.3h11v-.9h-11V407.48h11v-.9h-11V387.29h11v-.9h-11V367.1h11v-.9h-11V346.91h11V346h-11V326.72h11v-.9h-11v-19.3h11v-.9h-11V286.33h11v-.9h-11V266.14h11v-.9h-11V246h11v-.9h-11V225.76h11v-.9h-11v-19.3h11v-.9h-11V185.37h11v-.9h-11V165.18h11v-.9h-11V145h11v-.9h-11V124.8h11v-.9h-11V104.61h11v-.9h-11V84.41h11v-.9h-11V64.22h11v-.9h-11V44h11v-.9h-11V23.84h11v-.9h-11V3.65h11v-.9h-11v-19.3h11v-.9h-11V-36.74h11ZM.54,730.55v19.29h-33V730.55Zm34.43,0v19.29H2V730.55Zm34.42,0v19.29h-33V730.55Zm34.42,0v19.29h-33V730.55Zm34.43,0v19.29h-33V730.55Zm34.42,0v19.29h-33V730.55Zm34.42,0v19.29h-33V730.55Zm34.43,0v19.29h-33V730.55Zm34.42,0v19.29h-33V730.55Zm34.42,0v19.29h-33V730.55Zm34.43,0v19.29h-33V730.55Zm34.42,0v19.29h-33V730.55Zm34.42,0v19.29h-33V730.55Zm34.43,0v19.29H415V730.55Zm34.42,0v19.29h-33V730.55Zm34.42,0v19.29h-33V730.55Zm34.43,0v19.29h-33V730.55Zm34.42,0v19.29h-33V730.55Zm34.42,0v19.29h-33V730.55Zm34.43,0v19.29h-33V730.55Zm34.42,0v19.29H656V730.55Zm34.42,0v19.29h-33V730.55Zm34.43,0v19.29h-33V730.55Zm34.42,0v19.29h-33V730.55ZM.54,710.36v19.29h-33V710.36Zm34.43,0v19.29H2V710.36Zm34.42,0v19.29h-33V710.36Zm34.42,0v19.29h-33V710.36Zm34.43,0v19.29h-33V710.36Zm34.42,0v19.29h-33V710.36Zm34.42,0v19.29h-33V710.36Zm34.43,0v19.29h-33V710.36Zm34.42,0v19.29h-33V710.36Zm34.42,0v19.29h-33V710.36Zm34.43,0v19.29h-33V710.36Zm34.42,0v19.29h-33V710.36Zm34.42,0v19.29h-33V710.36Zm34.43,0v19.29H415V710.36Zm34.42,0v19.29h-33V710.36Zm34.42,0v19.29h-33V710.36Zm34.43,0v19.29h-33V710.36Zm34.42,0v19.29h-33V710.36Zm34.42,0v19.29h-33V710.36Zm34.43,0v19.29h-33V710.36Zm34.42,0v19.29H656V710.36Zm34.42,0v19.29h-33V710.36Zm34.43,0v19.29h-33V710.36Zm34.42,0v19.29h-33V710.36ZM.54,690.17v19.29h-33V690.17Zm34.43,0v19.29H2V690.17Zm34.42,0v19.29h-33V690.17Zm34.42,0v19.29h-33V690.17Zm34.43,0v19.29h-33V690.17Zm34.42,0v19.29h-33V690.17Zm34.42,0v19.29h-33V690.17Zm34.43,0v19.29h-33V690.17Zm34.42,0v19.29h-33V690.17Zm34.42,0v19.29h-33V690.17Zm34.43,0v19.29h-33V690.17Zm34.42,0v19.29h-33V690.17Zm34.42,0v19.29h-33V690.17Zm34.43,0v19.29H415V690.17Zm34.42,0v19.29h-33V690.17Zm34.42,0v19.29h-33V690.17Zm34.43,0v19.29h-33V690.17Zm34.42,0v19.29h-33V690.17Zm34.42,0v19.29h-33V690.17Zm34.43,0v19.29h-33V690.17Zm34.42,0v19.29H656V690.17Zm34.42,0v19.29h-33V690.17Zm34.43,0v19.29h-33V690.17Zm34.42,0v19.29h-33V690.17ZM.54,670v19.29h-33V670ZM35,670v19.29H2V670Zm34.42,0v19.29h-33V670Zm34.42,0v19.29h-33V670Zm34.43,0v19.29h-33V670Zm34.42,0v19.29h-33V670Zm34.42,0v19.29h-33V670Zm34.43,0v19.29h-33V670Zm34.42,0v19.29h-33V670Zm34.42,0v19.29h-33V670Zm34.43,0v19.29h-33V670Zm34.42,0v19.29h-33V670Zm34.42,0v19.29h-33V670Zm34.43,0v19.29H415V670Zm34.42,0v19.29h-33V670Zm34.42,0v19.29h-33V670Zm34.43,0v19.29h-33V670Zm34.42,0v19.29h-33V670Zm34.42,0v19.29h-33V670Zm34.43,0v19.29h-33V670ZM689,670v19.29H656V670Zm34.42,0v19.29h-33V670Zm34.43,0v19.29h-33V670Zm34.42,0v19.29h-33V670ZM.54,649.79v19.29h-33V649.79Zm34.43,0v19.29H2V649.79Zm34.42,0v19.29h-33V649.79Zm34.42,0v19.29h-33V649.79Zm34.43,0v19.29h-33V649.79Zm34.42,0v19.29h-33V649.79Zm34.42,0v19.29h-33V649.79Zm34.43,0v19.29h-33V649.79Zm34.42,0v19.29h-33V649.79Zm34.42,0v19.29h-33V649.79Zm34.43,0v19.29h-33V649.79Zm34.42,0v19.29h-33V649.79Zm34.42,0v19.29h-33V649.79Zm34.43,0v19.29H415V649.79Zm34.42,0v19.29h-33V649.79Zm34.42,0v19.29h-33V649.79Zm34.43,0v19.29h-33V649.79Zm34.42,0v19.29h-33V649.79Zm34.42,0v19.29h-33V649.79Zm34.43,0v19.29h-33V649.79Zm34.42,0v19.29H656V649.79Zm34.42,0v19.29h-33V649.79Zm34.43,0v19.29h-33V649.79Zm34.42,0v19.29h-33V649.79ZM.54,629.59v19.29h-33V629.59Zm34.43,0v19.29H2V629.59Zm34.42,0v19.29h-33V629.59Zm34.42,0v19.29h-33V629.59Zm34.43,0v19.29h-33V629.59Zm34.42,0v19.29h-33V629.59Zm34.42,0v19.29h-33V629.59Zm34.43,0v19.29h-33V629.59Zm34.42,0v19.29h-33V629.59Zm34.42,0v19.29h-33V629.59Zm34.43,0v19.29h-33V629.59Zm34.42,0v19.29h-33V629.59Zm34.42,0v19.29h-33V629.59Zm34.43,0v19.29H415V629.59Zm34.42,0v19.29h-33V629.59Zm34.42,0v19.29h-33V629.59Zm34.43,0v19.29h-33V629.59Zm34.42,0v19.29h-33V629.59Zm34.42,0v19.29h-33V629.59Zm34.43,0v19.29h-33V629.59Zm34.42,0v19.29H656V629.59Zm34.42,0v19.29h-33V629.59Zm34.43,0v19.29h-33V629.59Zm34.42,0v19.29h-33V629.59ZM.54,609.4v19.29h-33V609.4Zm34.43,0v19.29H2V609.4Zm34.42,0v19.29h-33V609.4Zm34.42,0v19.29h-33V609.4Zm34.43,0v19.29h-33V609.4Zm34.42,0v19.29h-33V609.4Zm34.42,0v19.29h-33V609.4Zm34.43,0v19.29h-33V609.4Zm34.42,0v19.29h-33V609.4Zm34.42,0v19.29h-33V609.4Zm34.43,0v19.29h-33V609.4Zm34.42,0v19.29h-33V609.4Zm34.42,0v19.29h-33V609.4Zm34.43,0v19.29H415V609.4Zm34.42,0v19.29h-33V609.4Zm34.42,0v19.29h-33V609.4Zm34.43,0v19.29h-33V609.4Zm34.42,0v19.29h-33V609.4Zm34.42,0v19.29h-33V609.4Zm34.43,0v19.29h-33V609.4Zm34.42,0v19.29H656V609.4Zm34.42,0v19.29h-33V609.4Zm34.43,0v19.29h-33V609.4Zm34.42,0v19.29h-33V609.4ZM.54,589.21V608.5h-33V589.21Zm34.43,0V608.5H2V589.21Zm34.42,0V608.5h-33V589.21Zm34.42,0V608.5h-33V589.21Zm34.43,0V608.5h-33V589.21Zm34.42,0V608.5h-33V589.21Zm34.42,0V608.5h-33V589.21Zm34.43,0V608.5h-33V589.21Zm34.42,0V608.5h-33V589.21Zm34.42,0V608.5h-33V589.21Zm34.43,0V608.5h-33V589.21Zm34.42,0V608.5h-33V589.21Zm34.42,0V608.5h-33V589.21Zm34.43,0V608.5H415V589.21Zm34.42,0V608.5h-33V589.21Zm34.42,0V608.5h-33V589.21Zm34.43,0V608.5h-33V589.21Zm34.42,0V608.5h-33V589.21Zm34.42,0V608.5h-33V589.21Zm34.43,0V608.5h-33V589.21Zm34.42,0V608.5H656V589.21Zm34.42,0V608.5h-33V589.21Zm34.43,0V608.5h-33V589.21Zm34.42,0V608.5h-33V589.21ZM.54,569v19.29h-33V569ZM35,569v19.29H2V569Zm34.42,0v19.29h-33V569Zm34.42,0v19.29h-33V569Zm34.43,0v19.29h-33V569Zm34.42,0v19.29h-33V569Zm34.42,0v19.29h-33V569Zm34.43,0v19.29h-33V569Zm34.42,0v19.29h-33V569Zm34.42,0v19.29h-33V569Zm34.43,0v19.29h-33V569Zm34.42,0v19.29h-33V569Zm34.42,0v19.29h-33V569Zm34.43,0v19.29H415V569Zm34.42,0v19.29h-33V569Zm34.42,0v19.29h-33V569Zm34.43,0v19.29h-33V569Zm34.42,0v19.29h-33V569Zm34.42,0v19.29h-33V569Zm34.43,0v19.29h-33V569ZM689,569v19.29H656V569Zm34.42,0v19.29h-33V569Zm34.43,0v19.29h-33V569Zm34.42,0v19.29h-33V569ZM.54,548.83v19.29h-33V548.83Zm34.43,0v19.29H2V548.83Zm34.42,0v19.29h-33V548.83Zm34.42,0v19.29h-33V548.83Zm34.43,0v19.29h-33V548.83Zm34.42,0v19.29h-33V548.83Zm34.42,0v19.29h-33V548.83Zm34.43,0v19.29h-33V548.83Zm34.42,0v19.29h-33V548.83Zm34.42,0v19.29h-33V548.83Zm34.43,0v19.29h-33V548.83Zm34.42,0v19.29h-33V548.83Zm34.42,0v19.29h-33V548.83Zm34.43,0v19.29H415V548.83Zm34.42,0v19.29h-33V548.83Zm34.42,0v19.29h-33V548.83Zm34.43,0v19.29h-33V548.83Zm34.42,0v19.29h-33V548.83Zm34.42,0v19.29h-33V548.83Zm34.43,0v19.29h-33V548.83Zm34.42,0v19.29H656V548.83Zm34.42,0v19.29h-33V548.83Zm34.43,0v19.29h-33V548.83Zm34.42,0v19.29h-33V548.83ZM.54,528.63v19.29h-33V528.63Zm34.43,0v19.29H2V528.63Zm34.42,0v19.29h-33V528.63Zm34.42,0v19.29h-33V528.63Zm34.43,0v19.29h-33V528.63Zm34.42,0v19.29h-33V528.63Zm34.42,0v19.29h-33V528.63Zm34.43,0v19.29h-33V528.63Zm34.42,0v19.29h-33V528.63Zm34.42,0v19.29h-33V528.63Zm34.43,0v19.29h-33V528.63Zm34.42,0v19.29h-33V528.63Zm34.42,0v19.29h-33V528.63Zm34.43,0v19.29H415V528.63Zm34.42,0v19.29h-33V528.63Zm34.42,0v19.29h-33V528.63Zm34.43,0v19.29h-33V528.63Zm34.42,0v19.29h-33V528.63Zm34.42,0v19.29h-33V528.63Zm34.43,0v19.29h-33V528.63Zm34.42,0v19.29H656V528.63Zm34.42,0v19.3h-33V528.63Zm34.43,0v19.3h-33v-19.3Zm34.42,0v19.3h-33v-19.3ZM.54,508.44v19.29h-33V508.44Zm34.43,0v19.29H2V508.44Zm34.42,0v19.29h-33V508.44Zm34.42,0v19.29h-33V508.44Zm34.43,0v19.29h-33V508.44Zm34.42,0v19.29h-33V508.44Zm34.42,0v19.29h-33V508.44Zm34.43,0v19.29h-33V508.44Zm34.42,0v19.29h-33V508.44Zm34.42,0v19.29h-33V508.44Zm34.43,0v19.29h-33V508.44Zm34.42,0v19.29h-33V508.44Zm34.42,0v19.29h-33V508.44Zm34.43,0v19.29H415V508.44Zm34.42,0v19.29h-33V508.44Zm34.42,0v19.29h-33V508.44Zm34.43,0v19.29h-33V508.44Zm34.42,0v19.29h-33V508.44Zm34.42,0v19.29h-33V508.44Zm34.43,0v19.29h-33V508.44Zm34.42,0v19.29H656V508.44Zm34.42,0v19.29h-33V508.44Zm34.43,0v19.29h-33V508.44Zm34.42,0v19.29h-33V508.44ZM.54,488.25v19.29h-33V488.25Zm34.43,0v19.29H2V488.25Zm34.42,0v19.29h-33V488.25Zm34.42,0v19.29h-33V488.25Zm34.43,0v19.29h-33V488.25Zm34.42,0v19.29h-33V488.25Zm34.42,0v19.29h-33V488.25Zm34.43,0v19.29h-33V488.25Zm34.42,0v19.29h-33V488.25Zm34.42,0v19.29h-33V488.25Zm34.43,0v19.29h-33V488.25Zm34.42,0v19.29h-33V488.25Zm34.42,0v19.29h-33V488.25Zm34.43,0v19.29H415V488.25Zm34.42,0v19.29h-33V488.25Zm34.42,0v19.29h-33V488.25Zm34.43,0v19.29h-33V488.25Zm34.42,0v19.29h-33V488.25Zm34.42,0v19.29h-33V488.25Zm34.43,0v19.29h-33V488.25Zm34.42,0v19.29H656V488.25Zm34.42,0v19.29h-33V488.25Zm34.43,0v19.29h-33V488.25Zm34.42,0v19.29h-33V488.25ZM.54,468.06v19.29h-33V468.06Zm34.43,0v19.29H2V468.06Zm34.42,0v19.29h-33V468.06Zm34.42,0v19.29h-33V468.06Zm34.43,0v19.29h-33V468.06Zm34.42,0v19.29h-33V468.06Zm34.42,0v19.29h-33V468.06Zm34.43,0v19.29h-33V468.06Zm34.42,0v19.29h-33V468.06Zm34.42,0v19.29h-33V468.06Zm34.43,0v19.29h-33V468.06Zm34.42,0v19.29h-33V468.06Zm34.42,0v19.29h-33V468.06Zm34.43,0v19.29H415V468.06Zm34.42,0v19.29h-33V468.06Zm34.42,0v19.29h-33V468.06Zm34.43,0v19.29h-33V468.06Zm34.42,0v19.29h-33V468.06Zm34.42,0v19.29h-33V468.06Zm34.43,0v19.29h-33V468.06Zm34.42,0v19.29H656V468.06Zm34.42,0v19.29h-33V468.06Zm34.43,0v19.29h-33V468.06Zm34.42,0v19.29h-33V468.06ZM.54,447.87v19.29h-33V447.87Zm34.43,0v19.29H2V447.87Zm34.42,0v19.29h-33V447.87Zm34.42,0v19.29h-33V447.87Zm34.43,0v19.29h-33V447.87Zm34.42,0v19.29h-33V447.87Zm34.42,0v19.29h-33V447.87Zm34.43,0v19.29h-33V447.87Zm34.42,0v19.29h-33V447.87Zm34.42,0v19.29h-33V447.87Zm34.43,0v19.29h-33V447.87Zm34.42,0v19.29h-33V447.87Zm34.42,0v19.29h-33V447.87Zm34.43,0v19.29H415V447.87Zm34.42,0v19.29h-33V447.87Zm34.42,0v19.29h-33V447.87Zm34.43,0v19.29h-33V447.87Zm34.42,0v19.29h-33V447.87Zm34.42,0v19.29h-33V447.87Zm34.43,0v19.29h-33V447.87Zm34.42,0v19.29H656V447.87Zm34.42,0v19.29h-33V447.87Zm34.43,0v19.29h-33V447.87Zm34.42,0v19.29h-33V447.87ZM.54,427.67V447h-33v-19.3Zm34.43,0V447H2v-19.3Zm34.42,0V447h-33v-19.3Zm34.42,0V447h-33v-19.3Zm34.43,0V447h-33v-19.3Zm34.42,0V447h-33v-19.3Zm34.42,0V447h-33v-19.3Zm34.43,0V447h-33v-19.3Zm34.42,0V447h-33v-19.3Zm34.42,0V447h-33v-19.3Zm34.43,0V447h-33v-19.3Zm34.42,0V447h-33v-19.3Zm34.42,0V447h-33v-19.3Zm34.43,0V447H415v-19.3Zm34.42,0V447h-33v-19.3Zm34.42,0V447h-33v-19.3Zm34.43,0V447h-33v-19.3Zm34.42,0V447h-33v-19.3Zm34.42,0V447h-33v-19.3Zm34.43,0V447h-33v-19.3Zm34.42,0V447H656v-19.3Zm34.42,0V447h-33v-19.3Zm34.43,0V447h-33v-19.3Zm34.42,0V447h-33v-19.3ZM.54,407.48v19.29h-33V407.48Zm34.43,0v19.29H2V407.48Zm34.42,0v19.29h-33V407.48Zm34.42,0v19.29h-33V407.48Zm34.43,0v19.29h-33V407.48Zm34.42,0v19.29h-33V407.48Zm34.42,0v19.29h-33V407.48Zm34.43,0v19.29h-33V407.48Zm34.42,0v19.29h-33V407.48Zm34.42,0v19.29h-33V407.48Zm34.43,0v19.29h-33V407.48Zm34.42,0v19.29h-33V407.48Zm34.42,0v19.29h-33V407.48Zm34.43,0v19.29H415V407.48Zm34.42,0v19.29h-33V407.48Zm34.42,0v19.29h-33V407.48Zm34.43,0v19.29h-33V407.48Zm34.42,0v19.29h-33V407.48Zm34.42,0v19.29h-33V407.48Zm34.43,0v19.29h-33V407.48Zm34.42,0v19.29H656V407.48Zm34.42,0v19.29h-33V407.48Zm34.43,0v19.29h-33V407.48Zm34.42,0v19.29h-33V407.48ZM.54,387.29v19.29h-33V387.29Zm34.43,0v19.29H2V387.29Zm34.42,0v19.29h-33V387.29Zm34.42,0v19.29h-33V387.29Zm34.43,0v19.29h-33V387.29Zm34.42,0v19.29h-33V387.29Zm34.42,0v19.29h-33V387.29Zm34.43,0v19.29h-33V387.29Zm34.42,0v19.29h-33V387.29Zm34.42,0v19.29h-33V387.29Zm34.43,0v19.29h-33V387.29Zm34.42,0v19.29h-33V387.29Zm34.42,0v19.29h-33V387.29Zm34.43,0v19.29H415V387.29Zm34.42,0v19.29h-33V387.29Zm34.42,0v19.29h-33V387.29Zm34.43,0v19.29h-33V387.29Zm34.42,0v19.29h-33V387.29Zm34.42,0v19.29h-33V387.29Zm34.43,0v19.29h-33V387.29Zm34.42,0v19.29H656V387.29Zm34.42,0v19.29h-33V387.29Zm34.43,0v19.29h-33V387.29Zm34.42,0v19.29h-33V387.29ZM.54,367.1v19.29h-33V367.1Zm34.43,0v19.29H2V367.1Zm34.42,0v19.29h-33V367.1Zm34.42,0v19.29h-33V367.1Zm34.43,0v19.29h-33V367.1Zm34.42,0v19.29h-33V367.1Zm34.42,0v19.29h-33V367.1Zm34.43,0v19.29h-33V367.1Zm34.42,0v19.29h-33V367.1Zm34.42,0v19.29h-33V367.1Zm34.43,0v19.29h-33V367.1Zm34.42,0v19.29h-33V367.1Zm34.42,0v19.29h-33V367.1Zm34.43,0v19.29H415V367.1Zm34.42,0v19.29h-33V367.1Zm34.42,0v19.29h-33V367.1Zm34.43,0v19.29h-33V367.1Zm34.42,0v19.29h-33V367.1Zm34.42,0v19.29h-33V367.1Zm34.43,0v19.29h-33V367.1Zm34.42,0v19.29H656V367.1Zm34.42,0v19.29h-33V367.1Zm34.43,0v19.29h-33V367.1Zm34.42,0v19.29h-33V367.1ZM.54,346.91V366.2h-33V346.91Zm34.43,0V366.2H2V346.91Zm34.42,0V366.2h-33V346.91Zm34.42,0V366.2h-33V346.91Zm34.43,0V366.2h-33V346.91Zm34.42,0V366.2h-33V346.91Zm34.42,0V366.2h-33V346.91Zm34.43,0V366.2h-33V346.91Zm34.42,0V366.2h-33V346.91Zm34.42,0V366.2h-33V346.91Zm34.43,0V366.2h-33V346.91Zm34.42,0V366.2h-33V346.91Zm34.42,0V366.2h-33V346.91Zm34.43,0V366.2H415V346.91Zm34.42,0V366.2h-33V346.91Zm34.42,0V366.2h-33V346.91Zm34.43,0V366.2h-33V346.91Zm34.42,0V366.2h-33V346.91Zm34.42,0V366.2h-33V346.91Zm34.43,0V366.2h-33V346.91Zm34.42,0V366.2H656V346.91Zm34.42,0V366.2h-33V346.91Zm34.43,0V366.2h-33V346.91Zm34.42,0V366.2h-33V346.91ZM.54,326.72V346h-33V326.72Zm34.43,0V346H2V326.72Zm34.42,0V346h-33V326.72Zm34.42,0V346h-33V326.72Zm34.43,0V346h-33V326.72Zm34.42,0V346h-33V326.72Zm34.42,0V346h-33V326.72Zm34.43,0V346h-33V326.72Zm34.42,0V346h-33V326.72Zm34.42,0V346h-33V326.72Zm34.43,0V346h-33V326.72Zm34.42,0V346h-33V326.72Zm34.42,0V346h-33V326.72Zm34.43,0V346H415V326.72Zm34.42,0V346h-33V326.72Zm34.42,0V346h-33V326.72Zm34.43,0V346h-33V326.72Zm34.42,0V346h-33V326.72Zm34.42,0V346h-33V326.72Zm34.43,0V346h-33V326.72Zm34.42,0V346H656V326.72Zm34.42,0V346h-33V326.72Zm34.43,0V346h-33V326.72Zm34.42,0V346h-33V326.72ZM.54,306.52v19.29h-33V306.52Zm34.43,0v19.29H2V306.52Zm34.42,0v19.29h-33V306.52Zm34.42,0v19.29h-33V306.52Zm34.43,0v19.29h-33V306.52Zm34.42,0v19.29h-33V306.52Zm34.42,0v19.29h-33V306.52Zm34.43,0v19.29h-33V306.52Zm34.42,0v19.29h-33V306.52Zm34.42,0v19.29h-33V306.52Zm34.43,0v19.3h-33V306.52Zm34.42,0v19.3h-33v-19.3Zm34.42,0v19.3h-33v-19.3Zm34.43,0v19.3H415v-19.3Zm34.42,0v19.3h-33v-19.3Zm34.42,0v19.3h-33v-19.3Zm34.43,0v19.3h-33v-19.3Zm34.42,0v19.3h-33v-19.3Zm34.42,0v19.3h-33v-19.3Zm34.43,0v19.3h-33v-19.3Zm34.42,0v19.3H656v-19.3Zm34.42,0v19.3h-33v-19.3Zm34.43,0v19.3h-33v-19.3Zm34.42,0v19.3h-33v-19.3ZM.54,286.33v19.29h-33V286.33Zm34.43,0v19.29H2V286.33Zm34.42,0v19.29h-33V286.33Zm34.42,0v19.29h-33V286.33Zm34.43,0v19.29h-33V286.33Zm34.42,0v19.29h-33V286.33Zm34.42,0v19.29h-33V286.33Zm34.43,0v19.29h-33V286.33Zm34.42,0v19.29h-33V286.33Zm34.42,0v19.29h-33V286.33Zm34.43,0v19.29h-33V286.33Zm34.42,0v19.29h-33V286.33Zm34.42,0v19.29h-33V286.33Zm34.43,0v19.29H415V286.33Zm34.42,0v19.29h-33V286.33Zm34.42,0v19.29h-33V286.33Zm34.43,0v19.29h-33V286.33Zm34.42,0v19.29h-33V286.33Zm34.42,0v19.29h-33V286.33Zm34.43,0v19.29h-33V286.33Zm34.42,0v19.29H656V286.33Zm34.42,0v19.29h-33V286.33Zm34.43,0v19.29h-33V286.33Zm34.42,0v19.29h-33V286.33ZM.54,266.14v19.29h-33V266.14Zm34.43,0v19.29H2V266.14Zm34.42,0v19.29h-33V266.14Zm34.42,0v19.29h-33V266.14Zm34.43,0v19.29h-33V266.14Zm34.42,0v19.29h-33V266.14Zm34.42,0v19.29h-33V266.14Zm34.43,0v19.29h-33V266.14Zm34.42,0v19.29h-33V266.14Zm34.42,0v19.29h-33V266.14Zm34.43,0v19.29h-33V266.14Zm34.42,0v19.29h-33V266.14Zm34.42,0v19.29h-33V266.14Zm34.43,0v19.29H415V266.14Zm34.42,0v19.29h-33V266.14Zm34.42,0v19.29h-33V266.14Zm34.43,0v19.29h-33V266.14Zm34.42,0v19.29h-33V266.14Zm34.42,0v19.29h-33V266.14Zm34.43,0v19.29h-33V266.14Zm34.42,0v19.29H656V266.14Zm34.42,0v19.29h-33V266.14Zm34.43,0v19.29h-33V266.14Zm34.42,0v19.29h-33V266.14ZM.54,246v19.29h-33V246ZM35,246v19.29H2V246Zm34.42,0v19.29h-33V246Zm34.42,0v19.29h-33V246Zm34.43,0v19.29h-33V246Zm34.42,0v19.29h-33V246Zm34.42,0v19.29h-33V246Zm34.43,0v19.29h-33V246Zm34.42,0v19.29h-33V246Zm34.42,0v19.29h-33V246Zm34.43,0v19.29h-33V246Zm34.42,0v19.29h-33V246Zm34.42,0v19.29h-33V246Zm34.43,0v19.29H415V246Zm34.42,0v19.29h-33V246Zm34.42,0v19.29h-33V246Zm34.43,0v19.29h-33V246Zm34.42,0v19.29h-33V246Zm34.42,0v19.29h-33V246Zm34.43,0v19.29h-33V246ZM689,246v19.29H656V246Zm34.42,0v19.29h-33V246Zm34.43,0v19.29h-33V246Zm34.42,0v19.29h-33V246ZM.54,225.76v19.29h-33V225.76Zm34.43,0v19.29H2V225.76Zm34.42,0v19.29h-33V225.76Zm34.42,0v19.29h-33V225.76Zm34.43,0v19.29h-33V225.76Zm34.42,0v19.29h-33V225.76Zm34.42,0v19.29h-33V225.76Zm34.43,0v19.29h-33V225.76Zm34.42,0v19.29h-33V225.76Zm34.42,0v19.29h-33V225.76Zm34.43,0v19.29h-33V225.76Zm34.42,0v19.29h-33V225.76Zm34.42,0v19.29h-33V225.76Zm34.43,0v19.29H415V225.76Zm34.42,0v19.29h-33V225.76Zm34.42,0v19.29h-33V225.76Zm34.43,0v19.29h-33V225.76Zm34.42,0v19.29h-33V225.76Zm34.42,0v19.29h-33V225.76Zm34.43,0v19.29h-33V225.76Zm34.42,0v19.29H656V225.76Zm34.42,0v19.29h-33V225.76Zm34.43,0v19.29h-33V225.76Zm34.42,0v19.29h-33V225.76ZM.54,205.56v19.3h-33v-19.3Zm34.43,0v19.3H2v-19.3Zm34.42,0v19.3h-33v-19.3Zm34.42,0v19.3h-33v-19.3Zm34.43,0v19.3h-33v-19.3Zm34.42,0v19.3h-33v-19.3Zm34.42,0v19.3h-33v-19.3Zm34.43,0v19.3h-33v-19.3Zm34.42,0v19.3h-33v-19.3Zm34.42,0v19.3h-33v-19.3Zm34.43,0v19.3h-33v-19.3Zm34.42,0v19.3h-33v-19.3Zm34.42,0v19.3h-33v-19.3Zm34.43,0v19.3H415v-19.3Zm34.42,0v19.3h-33v-19.3Zm34.42,0v19.3h-33v-19.3Zm34.43,0v19.3h-33v-19.3Zm34.42,0v19.3h-33v-19.3Zm34.42,0v19.3h-33v-19.3Zm34.43,0v19.3h-33v-19.3Zm34.42,0v19.3H656v-19.3Zm34.42,0v19.3h-33v-19.3Zm34.43,0v19.3h-33v-19.3Zm34.42,0v19.3h-33v-19.3ZM.54,185.37v19.29h-33V185.37Zm34.43,0v19.29H2V185.37Zm34.42,0v19.29h-33V185.37Zm34.42,0v19.29h-33V185.37Zm34.43,0v19.29h-33V185.37Zm34.42,0v19.29h-33V185.37Zm34.42,0v19.29h-33V185.37Zm34.43,0v19.29h-33V185.37Zm34.42,0v19.29h-33V185.37Zm34.42,0v19.29h-33V185.37Zm34.43,0v19.29h-33V185.37Zm34.42,0v19.29h-33V185.37Zm34.42,0v19.29h-33V185.37Zm34.43,0v19.29H415V185.37Zm34.42,0v19.29h-33V185.37Zm34.42,0v19.29h-33V185.37Zm34.43,0v19.29h-33V185.37Zm34.42,0v19.29h-33V185.37Zm34.42,0v19.29h-33V185.37Zm34.43,0v19.29h-33V185.37Zm34.42,0v19.29H656V185.37Zm34.42,0v19.29h-33V185.37Zm34.43,0v19.29h-33V185.37Zm34.42,0v19.29h-33V185.37ZM.54,165.18v19.29h-33V165.18Zm34.43,0v19.29H2V165.18Zm34.42,0v19.29h-33V165.18Zm34.42,0v19.29h-33V165.18Zm34.43,0v19.29h-33V165.18Zm34.42,0v19.29h-33V165.18Zm34.42,0v19.29h-33V165.18Zm34.43,0v19.29h-33V165.18Zm34.42,0v19.29h-33V165.18Zm34.43,0v19.29h-33V165.18Zm34.42,0v19.29h-33V165.18Zm34.42,0v19.29h-33V165.18Zm34.42,0v19.29h-33V165.18Zm34.43,0v19.29H415V165.18Zm34.42,0v19.29h-33V165.18Zm34.42,0v19.29h-33V165.18Zm34.43,0v19.29h-33V165.18Zm34.42,0v19.29h-33V165.18Zm34.42,0v19.29h-33V165.18Zm34.43,0v19.29h-33V165.18Zm34.42,0v19.29H656V165.18Zm34.42,0v19.29h-33V165.18Zm34.43,0v19.29h-33V165.18Zm34.42,0v19.29h-33V165.18ZM.54,145v19.29h-33V145ZM35,145v19.29H2V145Zm34.42,0v19.29h-33V145Zm34.42,0v19.29h-33V145Zm34.43,0v19.29h-33V145Zm34.42,0v19.29h-33V145Zm34.42,0v19.29h-33V145Zm34.43,0v19.29h-33V145Zm34.42,0v19.29h-33V145Zm34.43,0v19.29h-33V145Zm34.42,0v19.29h-33V145Zm34.42,0v19.29h-33V145Zm34.42,0v19.29h-33V145Zm34.43,0v19.29H415V145Zm34.42,0v19.29h-33V145Zm34.42,0v19.29h-33V145Zm34.43,0v19.29h-33V145Zm34.42,0v19.29h-33V145Zm34.42,0v19.29h-33V145Zm34.43,0v19.29h-33V145ZM689,145v19.29H656V145Zm34.42,0v19.29h-33V145Zm34.43,0v19.29h-33V145Zm34.42,0v19.29h-33V145ZM.54,124.8v19.29h-33V124.8Zm34.43,0v19.29H2V124.8Zm34.42,0v19.29h-33V124.8Zm34.42,0v19.29h-33V124.8Zm34.43,0v19.29h-33V124.8Zm34.42,0v19.29h-33V124.8Zm34.42,0v19.29h-33V124.8Zm34.43,0v19.29h-33V124.8Zm34.42,0v19.29h-33V124.8Zm34.43,0v19.29h-33V124.8Zm34.42,0v19.29h-33V124.8Zm34.42,0v19.29h-33V124.8Zm34.42,0v19.29h-33V124.8Zm34.43,0v19.29H415V124.8Zm34.42,0v19.29h-33V124.8Zm34.42,0v19.29h-33V124.8Zm34.43,0v19.29h-33V124.8Zm34.42,0v19.29h-33V124.8Zm34.42,0v19.29h-33V124.8Zm34.43,0v19.29h-33V124.8Zm34.42,0v19.29H656V124.8Zm34.42,0v19.29h-33V124.8Zm34.43,0v19.29h-33V124.8Zm34.42,0v19.29h-33V124.8ZM.54,104.61V123.9h-33V104.61Zm34.43,0V123.9H2V104.61Zm34.42,0V123.9h-33V104.61Zm34.42,0V123.9h-33V104.61Zm34.43,0V123.9h-33V104.61Zm34.42,0V123.9h-33V104.61Zm34.42,0V123.9h-33V104.61Zm34.43,0V123.9h-33V104.61Zm34.42,0V123.9h-33V104.61Zm34.43,0V123.9h-33V104.61Zm34.42,0V123.9h-33V104.61Zm34.42,0V123.9h-33V104.61Zm34.42,0V123.9h-33V104.61Zm34.43,0V123.9H415V104.61Zm34.42,0V123.9h-33V104.61Zm34.42,0V123.9h-33V104.61Zm34.43,0V123.9h-33V104.61Zm34.42,0V123.9h-33V104.61Zm34.42,0V123.9h-33V104.61Zm34.43,0V123.9h-33V104.61Zm34.42,0V123.9H656V104.61Zm34.42,0V123.9h-33V104.61Zm34.43,0V123.9h-33V104.61Zm34.42,0V123.9h-33V104.61ZM.54,84.41V103.7h-33V84.41Zm34.43,0V103.7H2V84.41Zm34.42,0V103.7h-33V84.41Zm34.42,0V103.7h-33V84.41Zm34.43,0V103.7h-33V84.41Zm34.42,0V103.7h-33V84.41Zm34.42,0V103.7h-33V84.41Zm34.43,0V103.7h-33V84.41Zm34.42,0V103.7h-33V84.41Zm34.43,0V103.7h-33V84.41Zm34.42,0V103.7h-33V84.41Zm34.42,0V103.7h-33V84.41Zm34.42,0V103.7h-33V84.41Zm34.43,0V103.7H415V84.41Zm34.42,0V103.7h-33V84.41Zm34.42,0V103.7h-33V84.41Zm34.43,0V103.7h-33V84.41Zm34.42,0V103.7h-33V84.41Zm34.42,0V103.7h-33V84.41Zm34.43,0V103.7h-33V84.41Zm34.42,0V103.7H656V84.41Zm34.42,0v19.3h-33V84.41Zm34.43,0v19.3h-33V84.41Zm34.42,0v19.3h-33V84.41ZM.54,64.22V83.51h-33V64.22Zm34.43,0V83.51H2V64.22Zm34.42,0V83.51h-33V64.22Zm34.42,0V83.51h-33V64.22Zm34.43,0V83.51h-33V64.22Zm34.42,0V83.51h-33V64.22Zm34.42,0V83.51h-33V64.22Zm34.43,0V83.51h-33V64.22Zm34.42,0V83.51h-33V64.22Zm34.43,0V83.51h-33V64.22Zm34.42,0V83.51h-33V64.22Zm34.42,0V83.51h-33V64.22Zm34.42,0V83.51h-33V64.22Zm34.43,0V83.51H415V64.22Zm34.42,0V83.51h-33V64.22Zm34.42,0V83.51h-33V64.22Zm34.43,0V83.51h-33V64.22Zm34.42,0V83.51h-33V64.22Zm34.42,0V83.51h-33V64.22Zm34.43,0V83.51h-33V64.22Zm34.42,0V83.51H656V64.22Zm34.42,0V83.51h-33V64.22Zm34.43,0V83.51h-33V64.22Zm34.42,0V83.51h-33V64.22ZM.54,44V63.32h-33V44ZM35,44V63.32H2V44Zm34.42,0V63.32h-33V44Zm34.42,0V63.32h-33V44Zm34.43,0V63.32h-33V44Zm34.42,0V63.32h-33V44Zm34.42,0V63.32h-33V44Zm34.43,0V63.32h-33V44Zm34.42,0V63.32h-33V44Zm34.43,0V63.32h-33V44Zm34.42,0V63.32h-33V44Zm34.42,0V63.32h-33V44Zm34.42,0V63.32h-33V44Zm34.43,0V63.32H415V44Zm34.42,0V63.32h-33V44Zm34.42,0V63.32h-33V44Zm34.43,0V63.32h-33V44Zm34.42,0V63.32h-33V44Zm34.42,0V63.32h-33V44Zm34.43,0V63.32h-33V44ZM689,44V63.32H656V44Zm34.42,0V63.32h-33V44Zm34.43,0V63.32h-33V44Zm34.42,0V63.32h-33V44ZM.54,23.84V43.13h-33V23.84Zm34.43,0V43.13H2V23.84Zm34.42,0V43.13h-33V23.84Zm34.42,0V43.13h-33V23.84Zm34.43,0V43.13h-33V23.84Zm34.42,0V43.13h-33V23.84Zm34.42,0V43.13h-33V23.84Zm34.43,0V43.13h-33V23.84Zm34.42,0V43.13h-33V23.84Zm34.43,0V43.13h-33V23.84Zm34.42,0V43.13h-33V23.84Zm34.42,0V43.13h-33V23.84Zm34.42,0V43.13h-33V23.84Zm34.43,0V43.13H415V23.84Zm34.42,0V43.13h-33V23.84Zm34.42,0V43.13h-33V23.84Zm34.43,0V43.13h-33V23.84Zm34.42,0V43.13h-33V23.84Zm34.42,0V43.13h-33V23.84Zm34.43,0V43.13h-33V23.84Zm34.42,0V43.13H656V23.84Zm34.42,0V43.13h-33V23.84Zm34.43,0V43.13h-33V23.84Zm34.42,0V43.13h-33V23.84ZM.54,3.65V22.94h-33V3.65ZM35,3.65V22.94H2V3.65Zm34.42,0V22.94h-33V3.65Zm34.42,0V22.94h-33V3.65Zm34.43,0V22.94h-33V3.65Zm34.42,0V22.94h-33V3.65Zm34.42,0V22.94h-33V3.65Zm34.43,0V22.94h-33V3.65Zm34.42,0V22.94h-33V3.65Zm34.43,0V22.94h-33V3.65Zm34.42,0V22.94h-33V3.65Zm34.42,0V22.94h-33V3.65Zm34.42,0V22.94h-33V3.65Zm34.43,0V22.94H415V3.65Zm34.42,0V22.94h-33V3.65Zm34.42,0V22.94h-33V3.65Zm34.43,0V22.94h-33V3.65Zm34.42,0V22.94h-33V3.65Zm34.42,0V22.94h-33V3.65Zm34.43,0V22.94h-33V3.65Zm34.42,0V22.94H656V3.65Zm34.42,0V22.94h-33V3.65Zm34.43,0V22.94h-33V3.65Zm34.42,0V22.94h-33V3.65ZM.54-16.55V2.75h-33v-19.3Zm34.43,0V2.75H2v-19.3Zm34.42,0V2.75h-33v-19.3Zm34.42,0V2.75h-33v-19.3Zm34.43,0V2.75h-33v-19.3Zm34.42,0V2.75h-33v-19.3Zm34.43,0V2.75h-33v-19.3Zm34.42,0V2.75h-33v-19.3Zm34.42,0V2.75h-33v-19.3Zm34.43,0V2.75h-33v-19.3Zm34.42,0V2.75h-33v-19.3Zm34.42,0V2.75h-33v-19.3Zm34.42,0V2.75h-33v-19.3Zm34.43,0V2.75H415v-19.3Zm34.42,0V2.75h-33v-19.3Zm34.42,0V2.75h-33v-19.3Zm34.43,0V2.75h-33v-19.3Zm34.42,0V2.75h-33v-19.3Zm34.42,0V2.75h-33v-19.3Zm34.43,0V2.75h-33v-19.3Zm34.42,0V2.75H656v-19.3Zm34.42,0V2.75h-33v-19.3Zm34.43,0V2.75h-33v-19.3Zm34.42,0V2.75h-33v-19.3ZM.54-36.74v19.29h-33V-36.74Zm34.43,0v19.29H2V-36.74Zm34.42,0v19.29h-33V-36.74Zm34.42,0v19.29h-33V-36.74Zm34.43,0v19.29h-33V-36.74Zm34.42,0v19.29h-33V-36.74Zm34.43,0v19.29h-33V-36.74Zm34.42,0v19.29h-33V-36.74Zm34.42,0v19.29h-33V-36.74Zm34.43,0v19.29h-33V-36.74Zm34.42,0v19.29h-33V-36.74Zm34.42,0v19.29h-33V-36.74Zm34.42,0v19.29h-33V-36.74Zm34.43,0v19.29H415V-36.74Zm34.42,0v19.29h-33V-36.74Zm34.42,0v19.29h-33V-36.74Zm34.43,0v19.29h-33V-36.74Zm34.42,0v19.29h-33V-36.74Zm34.42,0v19.29h-33V-36.74Zm34.43,0v19.29h-33V-36.74Zm34.42,0v19.29H656V-36.74Zm34.42,0v19.29h-33V-36.74Zm34.43,0v19.29h-33V-36.74Zm34.42,0v19.29h-33V-36.74Z" transform="translate(81.86 37.64)"/><polygon class="cls-6" points="75.8 765.63 230.99 511.21 362.96 533.63 491.94 333.78 608.26 359.43 712.43 172.07 661.13 150.54 790.98 88.06 823.41 210.01 778.43 191.35 692.55 458.82 561.22 429.07 476.62 651.5 368.55 634.37 306.72 775.12 75.8 765.63"/><g class="cls-7"><g class="cls-8"><polygon class="cls-9" points="56.21 791.51 211.4 537.09 343.37 559.51 472.35 359.66 588.68 385.31 692.84 197.95 641.54 176.43 771.39 113.95 803.83 235.89 758.84 217.23 672.96 484.7 541.63 454.95 457.03 677.38 348.96 660.25 287.14 801 56.21 791.51"/><path class="cls-9" d="M226.4,796.32-81.86,783.65,113.07,464.08,245.64,486.6,375.27,285.75,490,311,565,176,481.31,140.9l230-110.65L770.6,253.36,697.36,223,613.21,485,480.37,454.94,396.43,675.63,287,658.28ZM30.57,724.1l153.59,6.31,63-143.47,106.73,16.92,85.27-224.17L569,409.09,649.8,157.4,523.66,384.3l-117.94-26L277.38,557.15,146,534.83Zm626-587.89,16.72,6.94-5.53-20.78-29.74,14.31,16.21,6.8Z" transform="translate(81.86 37.64)"/><polygon class="cls-10" points="56.21 791.51 211.4 537.09 343.37 559.51 472.35 359.66 588.68 385.31 692.84 197.95 641.54 176.43 771.39 113.95 803.83 235.89 758.84 217.23 672.96 484.7 541.63 454.95 457.03 677.38 348.96 660.25 287.14 801 56.21 791.51"/><path class="cls-10" d="M209.9,794a32.36,32.36,0,0,1-6.24.34l-230.92-9.48A31.49,31.49,0,0,1-53.64,768.7a30.36,30.36,0,0,1,.77-30.5L102.32,483.77a32.3,32.3,0,0,1,32.93-14.84l110.92,18.85L363.69,305.67a32.34,32.34,0,0,1,34.05-13.87l92.8,20.46,76-136.76-19.63-8.23a30.64,30.64,0,0,1-19-27.63A31.25,31.25,0,0,1,545.86,111L675.71,48.54a32.46,32.46,0,0,1,27.14-.46,30.77,30.77,0,0,1,17.39,20.19l32.44,122a30.75,30.75,0,0,1-10.09,31.39,32.44,32.44,0,0,1-33.25,5.17l-12.66-5.25L621.37,456.09c-5,15.58-21.48,24.83-37.7,21.15l-104-23.55L404.9,650.3a32.15,32.15,0,0,1-35.09,20l-83.45-13.23L234.42,775.36A32,32,0,0,1,209.9,794ZM28.69,725.09l156.17,6.42L238,610.61A32.21,32.21,0,0,1,272.46,592l82.16,13,75.43-198.3a32.16,32.16,0,0,1,37.15-19.62l102.52,23.22,77-239.79a31.59,31.59,0,0,1,17.08-19,32.75,32.75,0,0,1,12.12-2.89l-7.39-27.81-35.46,17.06a30.34,30.34,0,0,1,5.76,37L534.67,362.26a32.27,32.27,0,0,1-35.1,15.63l-94.36-20.8L288.31,538.22a32.29,32.29,0,0,1-32.51,14.17L145.47,533.65Z" transform="translate(81.86 37.64)"/><polygon class="cls-11" points="56.21 791.51 211.4 537.09 343.37 559.51 472.35 359.66 588.68 385.31 692.84 197.95 641.54 176.43 771.39 113.95 803.83 235.89 758.84 217.23 672.96 484.7 541.63 454.95 457.03 677.38 348.96 660.25 287.14 801 56.21 791.51"/><path class="cls-11" d="M209.74,792.92a31.68,31.68,0,0,1-6,.33l-230.93-9.49a30.36,30.36,0,0,1-25.46-15.57,29.32,29.32,0,0,1,.74-29.45L103.26,484.32A31.19,31.19,0,0,1,135.06,470L246.7,489,364.62,306.24a31.2,31.2,0,0,1,32.87-13.4l93.61,20.65L568.1,175l-20.72-8.69a29.58,29.58,0,0,1-18.32-26.68A30.15,30.15,0,0,1,546.34,112L676.19,49.5a31.32,31.32,0,0,1,26.2-.45,29.74,29.74,0,0,1,16.79,19.5l32.44,121.94a29.72,29.72,0,0,1-9.74,30.32,31.34,31.34,0,0,1-32.1,5L696,220.08l-75.68,235.7c-4.83,15-20.73,24-36.39,20.42L479,452.43,403.87,649.94A31,31,0,0,1,370,669.27L285.7,655.9,233.41,775A30.92,30.92,0,0,1,209.74,792.92ZM26.82,726.08l158.75,6.52L239,611a31.06,31.06,0,0,1,33.3-17.94l83.06,13.16,75.74-199.13A31.07,31.07,0,0,1,467,388.18l103.51,23.44,77.3-240.74a30.54,30.54,0,0,1,16.5-18.38,31.67,31.67,0,0,1,13.07-2.82l-8.08-30.39-38.1,18.34a29.29,29.29,0,0,1,6.72,36.77L533.71,361.76a31.16,31.16,0,0,1-33.89,15.09l-95.12-21L287.38,537.66A31.19,31.19,0,0,1,256,551.34L144.92,532.47Z" transform="translate(81.86 37.64)"/><polygon class="cls-12" points="56.21 791.51 211.4 537.09 343.37 559.51 472.35 359.66 588.68 385.31 692.84 197.95 641.54 176.43 771.39 113.95 803.83 235.89 758.84 217.23 672.96 484.7 541.63 454.95 457.03 677.38 348.96 660.25 287.14 801 56.21 791.51"/><path class="cls-12" d="M209.58,791.86a30.3,30.3,0,0,1-5.81.32l-230.92-9.49a29.27,29.27,0,0,1-24.56-15,28.26,28.26,0,0,1,.72-28.4L104.2,484.86A30.06,30.06,0,0,1,134.86,471l112.37,19.09L365.54,306.8a30.13,30.13,0,0,1,31.7-12.92l94.42,20.83,78-140.25-21.81-9.16a28.49,28.49,0,0,1-17.67-25.72,29.06,29.06,0,0,1,16.67-26.64L676.67,50.46A30.17,30.17,0,0,1,701.93,50a28.68,28.68,0,0,1,16.2,18.8l32.43,121.94a28.63,28.63,0,0,1-9.4,29.23,30.2,30.2,0,0,1-30.95,4.81l-14.89-6.17-76,236.83a29.92,29.92,0,0,1-35.1,19.69l-105.87-24L402.85,649.57a29.92,29.92,0,0,1-32.67,18.65L285,654.72,232.41,774.53A29.81,29.81,0,0,1,209.58,791.86ZM24.94,727.08l161.33,6.62L240,611.44a30,30,0,0,1,32.12-17.3l84,13.31,76.06-200a29.94,29.94,0,0,1,34.59-18.27L571.2,412.89l77.61-241.7a29.42,29.42,0,0,1,15.9-17.72,30.19,30.19,0,0,1,14-2.68l-8.79-33-40.83,19.65a28.29,28.29,0,0,1,7.77,36.49L532.75,361.26a30.06,30.06,0,0,1-32.68,14.55l-95.88-21.14L286.46,537.09a30.09,30.09,0,0,1-30.26,13.2l-111.83-19Z" transform="translate(81.86 37.64)"/><polygon class="cls-13" points="56.21 791.51 211.4 537.09 343.37 559.51 472.35 359.66 588.68 385.31 692.84 197.95 641.54 176.43 771.39 113.95 803.83 235.89 758.84 217.23 672.96 484.7 541.63 454.95 457.03 677.38 348.96 660.25 287.14 801 56.21 791.51"/><path class="cls-13" d="M209.42,790.8a28.87,28.87,0,0,1-5.59.31L-27.1,781.62a28.17,28.17,0,0,1-23.64-14.45A27.22,27.22,0,0,1-50,739.82L105.14,485.4a29,29,0,0,1,29.52-13.31L247.75,491.3,366.47,307.36A29,29,0,0,1,397,294.93l95.23,21,78.95-142-22.91-9.61a27.46,27.46,0,0,1-17-24.77,28,28,0,0,1,16-25.65L677.14,51.42A29,29,0,0,1,701.47,51a27.6,27.6,0,0,1,15.6,18.1l32.43,122a27.55,27.55,0,0,1-9,28.15,29.07,29.07,0,0,1-29.8,4.63l-16-6.64-76.41,238a28.79,28.79,0,0,1-33.79,19L477.62,449.93l-75.8,199.28a28.81,28.81,0,0,1-31.45,17.95l-86-13.63-53,120.59A28.65,28.65,0,0,1,209.42,790.8ZM23.07,728.07,187,734.8l54-122.94A28.83,28.83,0,0,1,271.9,595.2l84.84,13.45,76.38-200.8a28.84,28.84,0,0,1,33.32-17.59l105.49,23.89L649.85,171.5a28.31,28.31,0,0,1,15.32-17.06,29.09,29.09,0,0,1,15-2.47l-9.51-35.75-43.67,21A27.52,27.52,0,0,1,637.9,151.1,27.25,27.25,0,0,1,636,173.39L531.79,360.76a29,29,0,0,1-31.47,14l-96.63-21.31L285.53,536.53a29,29,0,0,1-29.14,12.71L143.82,530.11Z" transform="translate(81.86 37.64)"/><polygon class="cls-14" points="56.21 791.51 211.4 537.09 343.37 559.51 472.35 359.66 588.68 385.31 692.84 197.95 641.54 176.43 771.39 113.95 803.83 235.89 758.84 217.23 672.96 484.7 541.63 454.95 457.03 677.38 348.96 660.25 287.14 801 56.21 791.51"/><path class="cls-14" d="M209.26,789.75a27.5,27.5,0,0,1-5.38.29L-27,780.56a27.14,27.14,0,0,1-22.74-13.9,26.18,26.18,0,0,1,.67-26.3L106.08,485.94a27.82,27.82,0,0,1,28.38-12.8l113.82,19.34L367.39,307.93a27.87,27.87,0,0,1,29.35-12l96,21.18L572.7,173.41l-24-10.07a26.41,26.41,0,0,1-16.36-23.81,26.93,26.93,0,0,1,15.43-24.68L677.62,52.37A28,28,0,0,1,701,52a26.57,26.57,0,0,1,15,17.41l32.43,121.94a26.5,26.5,0,0,1-8.7,27.07,28,28,0,0,1-28.66,4.46L694,215.75,617.19,454.84a27.68,27.68,0,0,1-32.49,18.24L476.94,448.67,400.8,648.85a27.73,27.73,0,0,1-30.25,17.26l-86.84-13.77L230.4,773.7A27.58,27.58,0,0,1,209.26,789.75ZM21.2,729.06l166.48,6.84L242,612.27a27.76,27.76,0,0,1,29.74-16l85.73,13.59,76.7-201.63a27.72,27.72,0,0,1,32-16.91l106.49,24.12,78.22-243.61a27.29,27.29,0,0,1,14.73-16.41,28.07,28.07,0,0,1,16.06-2.15l-10.26-38.56-46.64,22.44a26.5,26.5,0,0,1,12.08,14.33A26.17,26.17,0,0,1,635,172.89L530.83,360.25a27.83,27.83,0,0,1-30.26,13.47l-97.39-21.47L284.61,536a27.85,27.85,0,0,1-28,12.21L143.27,528.93Z" transform="translate(81.86 37.64)"/><polygon class="cls-15" points="56.21 791.51 211.4 537.09 343.37 559.51 472.35 359.66 588.68 385.31 692.84 197.95 641.54 176.43 771.39 113.95 803.83 235.89 758.84 217.23 672.96 484.7 541.63 454.95 457.03 677.38 348.96 660.25 287.14 801 56.21 791.51"/><path class="cls-15" d="M209.1,788.69a26.81,26.81,0,0,1-5.16.29L-27,779.49a26,26,0,0,1-21.83-13.34,25.12,25.12,0,0,1,.64-25.25L107,486.48a26.72,26.72,0,0,1,27.25-12.29l114.54,19.47,119.5-185.17A26.77,26.77,0,0,1,396.49,297l96.86,21.36,80.88-145.49-25.09-10.52a25.35,25.35,0,0,1-15.71-22.86,25.85,25.85,0,0,1,14.82-23.69L678.1,53.33A26.83,26.83,0,0,1,700.56,53,25.51,25.51,0,0,1,715,69.66L747.38,191.6a25.44,25.44,0,0,1-8.35,26,26.85,26.85,0,0,1-27.51,4.27l-18.24-7.56L616.15,454.53A26.59,26.59,0,0,1,585,472l-108.7-24.62L399.77,648.48a26.6,26.6,0,0,1-29,16.57L283,651.15,229.39,773.29A26.46,26.46,0,0,1,209.1,788.69ZM19.32,730.05l169.06,7L243,612.68a26.62,26.62,0,0,1,28.54-15.37L358.16,611l77-202.46a26.62,26.62,0,0,1,30.75-16.24l107.49,24.35,78.53-244.57a26.17,26.17,0,0,1,14.13-15.75,26.93,26.93,0,0,1,17.11-1.74l-11-41.48-49.79,24a25.56,25.56,0,0,1,13.47,14.7,25.19,25.19,0,0,1-1.8,20.58L529.87,359.75a26.7,26.7,0,0,1-29.05,12.93L402.67,351l-119,184.36a26.74,26.74,0,0,1-26.9,11.73L142.72,527.75Z" transform="translate(81.86 37.64)"/><polygon class="cls-16" points="56.21 791.51 211.4 537.09 343.37 559.51 472.35 359.66 588.68 385.31 692.84 197.95 641.54 176.43 771.39 113.95 803.83 235.89 758.84 217.23 672.96 484.7 541.63 454.95 457.03 677.38 348.96 660.25 287.14 801 56.21 791.51"/><path class="cls-16" d="M208.94,787.64a26.19,26.19,0,0,1-4.94.27l-230.93-9.49a24.94,24.94,0,0,1-20.92-12.79,24.09,24.09,0,0,1,.62-24.19L108,487a25.6,25.6,0,0,1,26.11-11.77l115.27,19.58,119.9-185.78a25.64,25.64,0,0,1,27-11l97.67,21.54,81.85-147.23-26.18-11a24.34,24.34,0,0,1-15.06-21.91,24.77,24.77,0,0,1,14.2-22.7L678.57,54.29a25.75,25.75,0,0,1,21.53-.37,24.43,24.43,0,0,1,13.79,16l32.43,122a24.38,24.38,0,0,1-8,24.9,25.73,25.73,0,0,1-26.37,4.1l-19.34-8L615.1,454.22A25.48,25.48,0,0,1,585.21,471L475.57,446.16l-76.82,202A25.5,25.5,0,0,1,370.92,664l-88.54-14-54,122.92A25.39,25.39,0,0,1,208.94,787.64ZM17.45,731.05l171.63,7.05L244,613.1a25.55,25.55,0,0,1,27.36-14.74l87.52,13.87L436.2,408.94a25.52,25.52,0,0,1,29.47-15.56L574.15,418,653,172.44a25.05,25.05,0,0,1,13.55-15.1,25.75,25.75,0,0,1,18.19-1.19l-11.85-44.53-53.1,25.55,1.32.55a24.53,24.53,0,0,1,13.7,14.44,24.11,24.11,0,0,1-1.72,19.72L528.91,359.25a25.61,25.61,0,0,1-27.84,12.39l-98.91-21.81-119.4,185A25.6,25.6,0,0,1,257,546.08L142.17,526.57Z" transform="translate(81.86 37.64)"/><polygon class="cls-17" points="56.21 791.51 211.4 537.09 343.37 559.51 472.35 359.66 588.68 385.31 692.84 197.95 641.54 176.43 771.39 113.95 803.83 235.89 758.84 217.23 672.96 484.7 541.63 454.95 457.03 677.38 348.96 660.25 287.14 801 56.21 791.51"/><path class="cls-17" d="M208.78,786.58a24,24,0,0,1-4.73.26l-230.92-9.48a23.87,23.87,0,0,1-20-12.24A23,23,0,0,1-46.3,742L108.9,487.56a24.48,24.48,0,0,1,25-11.26l116,19.71L370.16,309.62A24.54,24.54,0,0,1,396,299.09l98.48,21.72,82.82-149L550,160.39a23.21,23.21,0,0,1-14.4-20.95,23.68,23.68,0,0,1,13.58-21.71L679.05,55.25a24.57,24.57,0,0,1,20.59-.36,23.37,23.37,0,0,1,13.19,15.32l32.43,122A23.32,23.32,0,0,1,737.61,216a24.64,24.64,0,0,1-25.22,3.92l-20.46-8.49-77.87,242.5a24.37,24.37,0,0,1-28.6,16l-110.58-25L397.72,647.75a24.37,24.37,0,0,1-26.61,15.19l-89.4-14.17L227.38,772.46A24.25,24.25,0,0,1,208.78,786.58ZM15.57,732l174.22,7.16L245,613.51a24.4,24.4,0,0,1,26.16-14.1l88.42,14,77.64-204.12a24.4,24.4,0,0,1,28.19-14.89l109.47,24.8L654,172.75a24,24,0,0,1,13-14.44,24.57,24.57,0,0,1,19.32-.46l-12.7-47.77-56.44,27.16,3.49,1.46a23.49,23.49,0,0,1,13.11,13.82,23,23,0,0,1-1.65,18.86L527.94,358.74a24.48,24.48,0,0,1-26.62,11.86l-99.66-22L281.84,534.28A24.52,24.52,0,0,1,257.18,545L141.62,525.39Z" transform="translate(81.86 37.64)"/><polygon class="cls-18" points="56.21 791.51 211.4 537.09 343.37 559.51 472.35 359.66 588.68 385.31 692.84 197.95 641.54 176.43 771.39 113.95 803.83 235.89 758.84 217.23 672.96 484.7 541.63 454.95 457.03 677.38 348.96 660.25 287.14 801 56.21 791.51"/><path class="cls-18" d="M208.62,785.53a24.09,24.09,0,0,1-4.51.25l-230.93-9.49a22.78,22.78,0,0,1-19.1-11.68,22,22,0,0,1,.56-22.09L109.83,488.1a23.38,23.38,0,0,1,23.85-10.75L250.4,497.18l120.69-187a23.4,23.4,0,0,1,24.65-10L495,322l83.79-150.72-28.37-11.9a22.19,22.19,0,0,1-13.74-20,22.63,22.63,0,0,1,13-20.73L679.53,56.2a23.47,23.47,0,0,1,19.65-.33,22.3,22.3,0,0,1,12.59,14.62L744.2,192.43a22.26,22.26,0,0,1-7.3,22.74,23.49,23.49,0,0,1-24.07,3.74L691.25,210,613,453.6a23.29,23.29,0,0,1-27.3,15.32L474.19,443.65,396.7,647.39a23.29,23.29,0,0,1-25.41,14.5l-90.24-14.31L226.38,772.05A23.18,23.18,0,0,1,208.62,785.53ZM13.7,733l176.79,7.26L246,613.92a23.31,23.31,0,0,1,25-13.45l89.31,14.16,78-205a23.3,23.3,0,0,1,26.9-14.21l110.47,25,79.45-247.42a22.92,22.92,0,0,1,12.37-13.79,23.47,23.47,0,0,1,18.68-.33l1.8.74-13.6-51.13-59.78,28.76,5.67,2.38a22.36,22.36,0,0,1,12.51,13.18,22,22,0,0,1-1.57,18L527,358.24a23.37,23.37,0,0,1-25.41,11.32L401.15,347.41,280.91,533.71A23.37,23.37,0,0,1,257.38,544L141.07,524.21Z" transform="translate(81.86 37.64)"/><polygon class="cls-19" points="56.21 791.51 211.4 537.09 343.37 559.51 472.35 359.66 588.68 385.31 692.84 197.95 641.54 176.43 771.39 113.95 803.83 235.89 758.84 217.23 672.96 484.7 541.63 454.95 457.03 677.38 348.96 660.25 287.14 801 56.21 791.51"/><path class="cls-19" d="M208.46,784.47a21.91,21.91,0,0,1-4.3.24l-230.92-9.49A21.67,21.67,0,0,1-44.95,764.1a21,21,0,0,1,.53-21L110.77,488.64a22.29,22.29,0,0,1,22.71-10.24l117.45,20L372,310.75a22.3,22.3,0,0,1,23.48-9.57l100.1,22.07,84.76-152.46-29.46-12.36a21.14,21.14,0,0,1-13.08-19.05,21.55,21.55,0,0,1,12.34-19.74L680,57.16a22.39,22.39,0,0,1,18.72-.32,21.24,21.24,0,0,1,12,13.93l32.44,121.94a21.22,21.22,0,0,1-7,21.65,22.38,22.38,0,0,1-22.93,3.57l-22.69-9.41L612,453.29a22.16,22.16,0,0,1-26,14.59L473.51,442.4,395.67,647a22.15,22.15,0,0,1-24.19,13.8l-91.09-14.44-55,125.25A22.06,22.06,0,0,1,208.46,784.47ZM11.83,734l179.37,7.37,55.81-127a22.19,22.19,0,0,1,23.78-12.82L361,615.82,439.27,410A22.19,22.19,0,0,1,464.9,396.5l111.46,25.25,79.75-248.38a21.83,21.83,0,0,1,11.78-13.13,22.4,22.4,0,0,1,17.8-.32l3.85,1.6L675,107l-63.11,30.37,7.84,3.29a21.3,21.3,0,0,1,11.92,12.56,21,21,0,0,1-1.5,17.14L526,357.74a22.24,22.24,0,0,1-24.2,10.77L400.64,346.2,280,533.15a22.29,22.29,0,0,1-22.42,9.77L140.52,523Z" transform="translate(81.86 37.64)"/><polygon class="cls-20" points="56.21 791.51 211.4 537.09 343.37 559.51 472.35 359.66 588.68 385.31 692.84 197.95 641.54 176.43 771.39 113.95 803.83 235.89 758.84 217.23 672.96 484.7 541.63 454.95 457.03 677.38 348.96 660.25 287.14 801 56.21 791.51"/><path class="cls-20" d="M208.3,783.42a21.26,21.26,0,0,1-4.08.22l-230.93-9.49A20.64,20.64,0,0,1-44,763.59a19.91,19.91,0,0,1,.51-20L111.71,489.18a21.14,21.14,0,0,1,21.57-9.72l118.18,20.07L372.93,311.31a21.19,21.19,0,0,1,22.31-9.09l100.91,22.25,85.73-154.21-30.55-12.81a20.08,20.08,0,0,1-12.43-18.1,20.46,20.46,0,0,1,11.73-18.75L680.48,58.12a21.25,21.25,0,0,1,17.78-.31A20.19,20.19,0,0,1,709.65,71l32.44,122a20.17,20.17,0,0,1-6.61,20.57,21.25,21.25,0,0,1-21.78,3.38l-23.81-9.87L610.93,453a21,21,0,0,1-24.7,13.85L472.82,441.15,394.65,646.66a21.07,21.07,0,0,1-23,13.12L279.72,645.2l-55.35,126A21,21,0,0,1,208.3,783.42ZM10,735l182,7.47L248,614.75a21.09,21.09,0,0,1,22.6-12.17L361.7,617,440.3,410.4a21.08,21.08,0,0,1,24.34-12.86L577.09,423l80.06-249.33a20.74,20.74,0,0,1,11.2-12.47,21.23,21.23,0,0,1,16.9-.31l5.91,2.45-15.39-57.87-66.45,32,10,4.2a20.26,20.26,0,0,1,11.32,11.93,19.91,19.91,0,0,1-1.42,16.29L525.06,357.23a21.13,21.13,0,0,1-23,10.24L400.13,345,279.07,532.59a21.18,21.18,0,0,1-21.3,9.28L140,521.86Z" transform="translate(81.86 37.64)"/><polygon class="cls-21" points="56.21 791.51 211.4 537.09 343.37 559.51 472.35 359.66 588.68 385.31 692.84 197.95 641.54 176.43 771.39 113.95 803.83 235.89 758.84 217.23 672.96 484.7 541.63 454.95 457.03 677.38 348.96 660.25 287.14 801 56.21 791.51"/><path class="cls-21" d="M208.14,782.36a19.89,19.89,0,0,1-3.87.21l-230.92-9.48a19.55,19.55,0,0,1-16.37-10,18.85,18.85,0,0,1,.48-18.93L112.65,489.72a20.05,20.05,0,0,1,20.44-9.21L252,500.71,373.86,311.87A20.06,20.06,0,0,1,395,303.26L496.71,325.7l86.71-156-31.65-13.27A19.05,19.05,0,0,1,540,139.32a19.39,19.39,0,0,1,11.11-17.76L681,59.08a20.13,20.13,0,0,1,16.85-.29,19.12,19.12,0,0,1,10.79,12.53L741,193.26a19.09,19.09,0,0,1-6.26,19.49A20.13,20.13,0,0,1,714.13,216l-24.92-10.34L609.88,452.67a19.92,19.92,0,0,1-23.39,13.12l-114.36-25.9L393.62,646.3a19.94,19.94,0,0,1-21.77,12.42L279.06,644l-55.7,126.8A19.83,19.83,0,0,1,208.14,782.36ZM8.08,736l184.53,7.58L249,615.17a20,20,0,0,1,21.41-11.54l92,14.59,78.91-207.46a20,20,0,0,1,23.07-12.18l113.44,25.7L658.2,174a19.6,19.6,0,0,1,10.6-11.81,20.11,20.11,0,0,1,16-.29l8,3.3-16.29-61.25-69.78,33.58,12.18,5.11a19.21,19.21,0,0,1,10.73,11.3,18.9,18.9,0,0,1-1.35,15.44L524.1,356.73a20,20,0,0,1-21.78,9.7L399.63,343.79,278.14,532a20,20,0,0,1-20.17,8.8L139.43,520.68Z" transform="translate(81.86 37.64)"/><polygon class="cls-22" points="56.21 791.51 211.4 537.09 343.37 559.51 472.35 359.66 588.68 385.31 692.84 197.95 641.54 176.43 771.39 113.95 803.83 235.89 758.84 217.23 672.96 484.7 541.63 454.95 457.03 677.38 348.96 660.25 287.14 801 56.21 791.51"/><path class="cls-22" d="M208,781.31a19.21,19.21,0,0,1-3.65.2L-26.59,772a18.48,18.48,0,0,1-15.47-9.45,17.79,17.79,0,0,1,.46-17.88L113.59,490.26a18.91,18.91,0,0,1,19.3-8.7l119.63,20.33L374.78,312.44a18.93,18.93,0,0,1,20-8.13l102.53,22.61L585,169.22l-32.74-13.74a18,18,0,0,1-11.12-16.19,18.32,18.32,0,0,1,10.49-16.78L681.43,60a19,19,0,0,1,15.91-.27A18,18,0,0,1,707.53,71.6L740,193.54A18,18,0,0,1,734.05,212a19,19,0,0,1-19.48,3l-26-10.8L608.84,452.35a18.82,18.82,0,0,1-22.09,12.4l-115.3-26.11L392.6,645.93A18.84,18.84,0,0,1,372,657.67l-93.64-14.84-56,127.56A18.77,18.77,0,0,1,208,781.31ZM6.21,737l187.1,7.69L250,615.58a18.86,18.86,0,0,1,20.22-10.89l92.88,14.72,79.23-208.28a18.85,18.85,0,0,1,21.78-11.51l114.44,25.92L659.24,174.3a18.53,18.53,0,0,1,10-11.16,19,19,0,0,1,15.12-.27l10,4.16-17.19-64.62-73.13,35.18,14.36,6a18.09,18.09,0,0,1,10.13,10.67,17.83,17.83,0,0,1-1.27,14.57L523.14,356.23a18.94,18.94,0,0,1-20.57,9.16L399.12,342.58,277.22,531.46a19,19,0,0,1-19.06,8.31L138.88,519.5Z" transform="translate(81.86 37.64)"/><polygon class="cls-23" points="56.21 791.51 211.4 537.09 343.37 559.51 472.35 359.66 588.68 385.31 692.84 197.95 641.54 176.43 771.39 113.95 803.83 235.89 758.84 217.23 672.96 484.7 541.63 454.95 457.03 677.38 348.96 660.25 287.14 801 56.21 791.51"/><path class="cls-23" d="M207.82,780.25a17.77,17.77,0,0,1-3.43.19L-26.54,771a17.35,17.35,0,0,1-14.55-8.89,16.75,16.75,0,0,1,.43-16.83L114.53,490.8a17.84,17.84,0,0,1,18.16-8.19l120.36,20.45L375.71,313a17.83,17.83,0,0,1,18.78-7.65l103.35,22.79,88.64-159.45L552.65,154.5a16.91,16.91,0,0,1-10.47-15.24,17.23,17.23,0,0,1,9.88-15.79L681.91,61a17.92,17.92,0,0,1,15-.26,17,17,0,0,1,9.6,11.15l32.43,121.94a16.94,16.94,0,0,1-5.57,17.32A17.89,17.89,0,0,1,715,214l-27.15-11.26L607.8,452A17.72,17.72,0,0,1,587,463.71L470.76,437.38,391.57,645.57a17.75,17.75,0,0,1-19.36,11l-94.48-15L221.35,770A17.64,17.64,0,0,1,207.82,780.25ZM4.33,738,194,745.79,251,616a17.77,17.77,0,0,1,19-10.25l93.77,14.87,79.54-209.12a17.75,17.75,0,0,1,20.5-10.83l115.44,26.15,81-252.2a17.42,17.42,0,0,1,9.42-10.5,17.94,17.94,0,0,1,14.24-.26l12.08,5-18.09-68-76.46,36.79L618,144.6a17,17,0,0,1,9.54,10,16.82,16.82,0,0,1-1.2,13.72L522.18,355.72a17.8,17.8,0,0,1-19.36,8.63l-104.21-23L276.29,530.89a17.8,17.8,0,0,1-17.93,7.82l-120-20.39Z" transform="translate(81.86 37.64)"/><polygon class="cls-24" points="56.21 791.51 211.4 537.09 343.37 559.51 472.35 359.66 588.68 385.31 692.84 197.95 641.54 176.43 771.39 113.95 803.83 235.89 758.84 217.23 672.96 484.7 541.63 454.95 457.03 677.38 348.96 660.25 287.14 801 56.21 791.51"/><path class="cls-24" d="M207.67,779.19a16.55,16.55,0,0,1-3.23.18l-230.92-9.49a16.25,16.25,0,0,1-13.64-8.33,15.69,15.69,0,0,1,.39-15.78l155.2-254.43a16.68,16.68,0,0,1,17-7.67l121.07,20.57L376.63,313.56a16.73,16.73,0,0,1,17.61-7.17l104.16,23L588,168.17l-34.92-14.65a15.84,15.84,0,0,1-9.81-14.29,16.14,16.14,0,0,1,9.25-14.8L682.38,62a16.76,16.76,0,0,1,14-.24,16,16,0,0,1,9,10.44l32.43,122a15.91,15.91,0,0,1-5.22,16.24A16.77,16.77,0,0,1,715.44,213l-28.27-11.72L606.75,451.73a16.6,16.6,0,0,1-19.49,10.94L470.07,436.13,390.55,645.21a16.63,16.63,0,0,1-18.15,10.35l-95.33-15.11L220.35,769.57A16.54,16.54,0,0,1,207.67,779.19ZM2.46,739l192.26,7.9L252,616.41a16.65,16.65,0,0,1,17.84-9.62l94.67,15L444.4,411.85a16.62,16.62,0,0,1,19.22-10.14L580,428.08l81.29-253.15a16.33,16.33,0,0,1,8.84-9.85,16.77,16.77,0,0,1,13.34-.24l14.14,5.86-19-71.36-79.8,38.39,18.7,7.85a16,16,0,0,1,8.94,9.42,15.71,15.71,0,0,1-1.12,12.86L521.22,355.22a16.68,16.68,0,0,1-18.15,8.08l-105-23.14L275.37,530.33a16.7,16.7,0,0,1-16.81,7.33L137.78,517.14Z" transform="translate(81.86 37.64)"/><polygon class="cls-25" points="56.21 791.51 211.4 537.09 343.37 559.51 472.35 359.66 588.68 385.31 692.84 197.95 641.54 176.43 771.39 113.95 803.83 235.89 758.84 217.23 672.96 484.7 541.63 454.95 457.03 677.38 348.96 660.25 287.14 801 56.21 791.51"/><path class="cls-25" d="M207.51,778.14a15.08,15.08,0,0,1-3,.16l-230.93-9.48A15.18,15.18,0,0,1-39.16,761a14.65,14.65,0,0,1,.37-14.72L116.4,491.88a15.6,15.6,0,0,1,15.9-7.16l121.8,20.69L377.56,314.13a15.59,15.59,0,0,1,16.43-6.7l105,23.15,90.58-162.93-36-15.11a14.79,14.79,0,0,1-9.16-13.34A15.06,15.06,0,0,1,553,125.39L682.86,62.91a15.66,15.66,0,0,1,13.1-.23,14.86,14.86,0,0,1,8.4,9.75l32.43,121.94a14.84,14.84,0,0,1-4.87,15.16,15.67,15.67,0,0,1-16,2.5l-29.38-12.19L605.71,451.42a15.52,15.52,0,0,1-18.2,10.21L469.39,434.87l-79.87,210a15.52,15.52,0,0,1-16.94,9.67L276.4,639.26,219.34,769.15A15.43,15.43,0,0,1,207.51,778.14ZM.58,740l194.84,8L253,616.82a15.54,15.54,0,0,1,16.66-9L365.25,623l80.17-210.78a15.53,15.53,0,0,1,17.94-9.47l117.42,26.59,81.59-254.1a15.23,15.23,0,0,1,8.25-9.19,15.65,15.65,0,0,1,12.46-.23l16.19,6.72L679.39,97.8l-83.13,40,20.87,8.76a14.9,14.9,0,0,1,8.34,8.79,14.67,14.67,0,0,1-1,12L520.26,354.72a15.58,15.58,0,0,1-16.94,7.54L397.6,339,274.45,529.77a15.64,15.64,0,0,1-15.7,6.84L137.23,516Z" transform="translate(81.86 37.64)"/><polygon class="cls-26" points="56.21 791.51 211.4 537.09 343.37 559.51 472.35 359.66 588.68 385.31 692.84 197.95 641.54 176.43 771.39 113.95 803.83 235.89 758.84 217.23 672.96 484.7 541.63 454.95 457.03 677.38 348.96 660.25 287.14 801 56.21 791.51"/><path class="cls-26" d="M207.35,777.08a14.49,14.49,0,0,1-2.8.16l-230.92-9.49a14.08,14.08,0,0,1-11.82-7.23,13.59,13.59,0,0,1,.34-13.67L117.34,492.42a14.48,14.48,0,0,1,14.76-6.65l122.53,20.82,123.85-191.9a14.51,14.51,0,0,1,15.26-6.22L499.52,331.8l91.55-164.68L554,151.56a13.77,13.77,0,0,1-8.51-12.39,14,14,0,0,1,8-12.83L683.34,63.86a14.55,14.55,0,0,1,12.16-.21,13.83,13.83,0,0,1,7.8,9.06l32.43,121.94a13.76,13.76,0,0,1-4.52,14.07,14.53,14.53,0,0,1-14.9,2.32l-30.5-12.65L604.67,451.11a14.4,14.4,0,0,1-16.9,9.48l-119.07-27L388.5,644.48a14.42,14.42,0,0,1-15.73,9l-97-15.38-57.4,130.67A14.34,14.34,0,0,1,207.35,777.08ZM-1.29,741l197.41,8.11L254,617.23a14.44,14.44,0,0,1,15.46-8.33L366,624.2l80.49-211.62a14.41,14.41,0,0,1,16.65-8.79l118.42,26.82,81.9-255.06a14.16,14.16,0,0,1,7.65-8.54,14.55,14.55,0,0,1,11.57-.2l18.25,7.56-20.78-78.1-86.47,41.6,23.05,9.67a13.84,13.84,0,0,1,7.75,8.17,13.63,13.63,0,0,1-1,11.14L519.3,354.21a14.44,14.44,0,0,1-15.73,7L397.09,337.74,273.52,529.2A14.48,14.48,0,0,1,259,535.56L136.68,514.78Z" transform="translate(81.86 37.64)"/><polygon class="cls-27" points="56.21 791.51 211.4 537.09 343.37 559.51 472.35 359.66 588.68 385.31 692.84 197.95 641.54 176.43 771.39 113.95 803.83 235.89 758.84 217.23 672.96 484.7 541.63 454.95 457.03 677.38 348.96 660.25 287.14 801 56.21 791.51"/><path class="cls-27" d="M207.19,776a13,13,0,0,1-2.58.14l-230.93-9.49A13,13,0,0,1-37.23,760a12.55,12.55,0,0,1,.32-12.62L118.28,493a13.36,13.36,0,0,1,13.63-6.15l123.25,20.94L379.4,315.26a13.36,13.36,0,0,1,14.09-5.74L500.08,333,592.6,166.6l-38.19-16a12.66,12.66,0,0,1-7.85-11.43A12.91,12.91,0,0,1,554,127.3L683.81,64.82A13.44,13.44,0,0,1,695,64.63a12.76,12.76,0,0,1,7.2,8.35l32.43,122a12.72,12.72,0,0,1-4.17,13,13.42,13.42,0,0,1-13.76,2.14L685.13,197,603.62,450.8A13.28,13.28,0,0,1,588,459.55L468,432.37,387.47,644.11A13.28,13.28,0,0,1,373,652.4l-97.88-15.52L217.33,768.33A13.24,13.24,0,0,1,207.19,776ZM-3.16,742l200,8.21L255,617.65A13.32,13.32,0,0,1,269.32,610l97.35,15.43L447.47,413a13.31,13.31,0,0,1,15.38-8.12l119.4,27,82.21-256a13.07,13.07,0,0,1,7.07-7.88,13.44,13.44,0,0,1,10.68-.19l20.3,8.42L680.84,94.73,591,137.94l25.22,10.58a12.77,12.77,0,0,1,7.15,7.54,12.58,12.58,0,0,1-.89,10.29L518.34,353.71a13.35,13.35,0,0,1-14.52,6.47L396.58,336.53l-124,192.11a13.35,13.35,0,0,1-13.45,5.86l-123-20.9Z" transform="translate(81.86 37.64)"/><polygon class="cls-28" points="56.21 791.51 211.4 537.09 343.37 559.51 472.35 359.66 588.68 385.31 692.84 197.95 641.54 176.43 771.39 113.95 803.83 235.89 758.84 217.23 672.96 484.7 541.63 454.95 457.03 677.38 348.96 660.25 287.14 801 56.21 791.51"/><path class="cls-28" d="M207,775a11.62,11.62,0,0,1-2.37.13l-230.92-9.48a11.93,11.93,0,0,1-10-6.12A11.51,11.51,0,0,1-36,747.93L119.22,493.51a12.25,12.25,0,0,1,12.49-5.64l124,21.07L380.33,315.82a12.25,12.25,0,0,1,12.91-5.26l107.4,23.68,93.5-168.17-39.29-16.48a11.62,11.62,0,0,1-7.2-10.48,11.83,11.83,0,0,1,6.79-10.85L684.29,65.78a12.29,12.29,0,0,1,10.29-.18,11.66,11.66,0,0,1,6.6,7.66L733.62,195.2a11.68,11.68,0,0,1-3.83,11.91,12.31,12.31,0,0,1-12.61,2L684.45,195.5l-81.87,255a12.19,12.19,0,0,1-14.3,8l-120.95-27.4L386.45,643.75a12.2,12.2,0,0,1-13.31,7.59l-98.73-15.65L216.33,767.91A12.13,12.13,0,0,1,207,775ZM-5,743l202.57,8.32,58.52-133.22a12.23,12.23,0,0,1,13.08-7l98.24,15.58L448.5,413.31a12.2,12.2,0,0,1,14.09-7.44L583,433.14l82.51-257A12,12,0,0,1,672,169a12.3,12.3,0,0,1,9.79-.18l22.36,9.28L681.56,93.2,588.42,138l27.39,11.5a11.71,11.71,0,0,1,6.56,6.9,11.5,11.5,0,0,1-.83,9.43L517.38,353.21a12.25,12.25,0,0,1-13.31,5.93l-108-23.82L271.67,528.07a12.24,12.24,0,0,1-12.32,5.38l-123.77-21Z" transform="translate(81.86 37.64)"/><polygon class="cls-29" points="56.21 791.51 211.4 537.09 343.37 559.51 472.35 359.66 588.68 385.31 692.84 197.95 641.54 176.43 771.39 113.95 803.83 235.89 758.84 217.23 672.96 484.7 541.63 454.95 457.03 677.38 348.96 660.25 287.14 801 56.21 791.51"/><path class="cls-29" d="M206.87,773.92a11.78,11.78,0,0,1-2.15.12l-230.93-9.49A10.86,10.86,0,0,1-35.3,759,10.45,10.45,0,0,1-35,748.47L120.16,494.05a11.11,11.11,0,0,1,11.35-5.12l124.71,21.19,125-193.74A11.16,11.16,0,0,1,393,311.6L501.2,335.46l94.47-169.91-40.38-16.94a10.57,10.57,0,0,1-6.55-9.53,10.75,10.75,0,0,1,6.18-9.86L684.77,66.74a11.17,11.17,0,0,1,9.36-.17,10.63,10.63,0,0,1,6,7l32.44,121.94a10.63,10.63,0,0,1-3.48,10.83,11.2,11.2,0,0,1-11.47,1.78l-33.83-14L601.54,450.18a11.08,11.08,0,0,1-13,7.29l-121.9-27.61L385.42,643.39a11.09,11.09,0,0,1-12.1,6.9L273.74,634.5l-58.42,133A11,11,0,0,1,206.87,773.92ZM-6.91,744l205.15,8.43,58.81-133.91a11.09,11.09,0,0,1,11.9-6.4l99.13,15.71,81.44-214.1a11.09,11.09,0,0,1,12.82-6.77L583.73,434.4l82.82-257.92a10.9,10.9,0,0,1,5.89-6.56,11.2,11.2,0,0,1,8.9-.16l24.41,10.12L682.29,91.66l-96.48,46.42,29.56,12.41a10.66,10.66,0,0,1,6,6.28,10.5,10.5,0,0,1-.74,8.57L516.42,352.7a11.12,11.12,0,0,1-12.1,5.39l-108.75-24L270.75,527.51a11.15,11.15,0,0,1-11.21,4.89L135,511.24Z" transform="translate(81.86 37.64)"/><polygon class="cls-30" points="56.21 791.51 211.4 537.09 343.37 559.51 472.35 359.66 588.68 385.31 692.84 197.95 641.54 176.43 771.39 113.95 803.83 235.89 758.84 217.23 672.96 484.7 541.63 454.95 457.03 677.38 348.96 660.25 287.14 801 56.21 791.51"/><path class="cls-30" d="M206.71,772.86a9.54,9.54,0,0,1-1.93.11l-230.93-9.49a9.75,9.75,0,0,1-8.18-5,9.41,9.41,0,0,1,.24-9.47L121.1,494.59A10,10,0,0,1,131.31,490l125.44,21.31L382.18,317a10,10,0,0,1,10.56-4.31l109,24L597.2,165l-41.47-17.4a9.52,9.52,0,0,1-5.89-8.58,9.69,9.69,0,0,1,5.55-8.88L685.24,67.69a10.06,10.06,0,0,1,8.43-.14,9.54,9.54,0,0,1,5.39,6.27L731.5,195.76a9.54,9.54,0,0,1-3.13,9.74,10.07,10.07,0,0,1-10.32,1.61l-34.95-14.5L600.49,449.86a10,10,0,0,1-11.69,6.57L466,428.6,384.39,643a10,10,0,0,1-10.88,6.22L273.08,633.31,214.32,767.09A10,10,0,0,1,206.71,772.86ZM-8.78,744.94l207.72,8.54,59.12-134.59a10,10,0,0,1,10.7-5.77l100,15.86L450.55,414A10,10,0,0,1,462.08,408l122.39,27.72,83.12-258.88a9.81,9.81,0,0,1,5.3-5.9,10.05,10.05,0,0,1,8-.15l26.48,11L683,90.13l-99.82,48,31.75,13.31a9.6,9.6,0,0,1,5.36,5.65,9.41,9.41,0,0,1-.68,7.72L515.46,352.2a10,10,0,0,1-10.89,4.85L395.06,332.9,269.83,527a10,10,0,0,1-10.09,4.4L134.48,510.06Z" transform="translate(81.86 37.64)"/><polygon class="cls-31" points="56.21 791.51 211.4 537.09 343.37 559.51 472.35 359.66 588.68 385.31 692.84 197.95 641.54 176.43 771.39 113.95 803.83 235.89 758.84 217.23 672.96 484.7 541.63 454.95 457.03 677.38 348.96 660.25 287.14 801 56.21 791.51"/><path class="cls-31" d="M206.55,771.81a9.82,9.82,0,0,1-1.72.09l-230.92-9.49A8.68,8.68,0,0,1-33.37,758a8.37,8.37,0,0,1,.21-8.42L122,495.13a8.89,8.89,0,0,1,9.08-4.1l126.16,21.44,125.82-195a8.93,8.93,0,0,1,9.39-3.83L502.33,337.9l96.4-173.4-42.56-17.86a8.45,8.45,0,0,1-5.24-7.62,8.63,8.63,0,0,1,4.94-7.89L685.72,68.65a9,9,0,0,1,7.49-.13A8.48,8.48,0,0,1,698,74.09l32.44,122a8.47,8.47,0,0,1-2.79,8.66,8.94,8.94,0,0,1-9.17,1.42l-36.06-15-83,258.39a8.87,8.87,0,0,1-10.4,5.84l-123.78-28-81.9,215.31a8.86,8.86,0,0,1-9.68,5.52L272.42,632.12,213.31,766.67A8.82,8.82,0,0,1,206.55,771.81ZM-10.66,745.94l210.3,8.63L259.06,619.3a8.88,8.88,0,0,1,9.52-5.12l100.92,16L451.57,414.4A8.87,8.87,0,0,1,461.82,409L585.2,436.94,668.63,177.1a8.77,8.77,0,0,1,4.72-5.25,9,9,0,0,1,7.11-.13L709,183.56l-25.26-95L580.58,138.23l33.92,14.22a8.52,8.52,0,0,1,4.76,5,8.34,8.34,0,0,1-.6,6.86L514.5,351.7a8.9,8.9,0,0,1-9.68,4.31L394.55,331.69,268.9,526.38a8.9,8.9,0,0,1-9,3.91l-126-21.4Z" transform="translate(81.86 37.64)"/><polygon class="cls-32" points="56.21 791.51 211.4 537.09 343.37 559.51 472.35 359.66 588.68 385.31 692.84 197.95 641.54 176.43 771.39 113.95 803.83 235.89 758.84 217.23 672.96 484.7 541.63 454.95 457.03 677.38 348.96 660.25 287.14 801 56.21 791.51"/><path class="cls-32" d="M206.39,770.75a7.47,7.47,0,0,1-1.5.08L-26,761.35a7.58,7.58,0,0,1-6.36-3.9,7.31,7.31,0,0,1,.18-7.36L123,495.67a7.81,7.81,0,0,1,7.95-3.59l126.89,21.56L384,318.07a7.81,7.81,0,0,1,8.22-3.34l110.65,24.4L600.26,164l-43.65-18.32A7.39,7.39,0,0,1,552,139a7.55,7.55,0,0,1,4.33-6.91L686.2,69.61a7.81,7.81,0,0,1,6.55-.12,7.49,7.49,0,0,1,4.2,4.88l32.43,121.94a7.43,7.43,0,0,1-2.44,7.58,7.83,7.83,0,0,1-8,1.25l-37.18-15.42L598.41,449.24a7.76,7.76,0,0,1-9.1,5.11L464.58,426.1,382.34,642.29a7.75,7.75,0,0,1-8.46,4.84l-102.13-16.2L212.31,766.26A7.72,7.72,0,0,1,206.39,770.75ZM-12.53,746.93l212.88,8.74,59.72-135.95a7.76,7.76,0,0,1,8.32-4.49l101.82,16.14,82.39-216.6a7.76,7.76,0,0,1,9-4.74L585.94,438.2l83.74-260.78a7.64,7.64,0,0,1,4.12-4.6,7.81,7.81,0,0,1,6.23-.11l30.59,12.69L684.46,87.06,578,138.3l36.09,15.14a7.46,7.46,0,0,1,4.17,4.39,7.34,7.34,0,0,1-.53,6L513.54,351.2a7.8,7.8,0,0,1-8.47,3.77L394,330.48,268,525.82a7.79,7.79,0,0,1-7.85,3.42L133.39,507.71Z" transform="translate(81.86 37.64)"/><polygon class="cls-33" points="56.21 791.51 211.4 537.09 343.37 559.51 472.35 359.66 588.68 385.31 692.84 197.95 641.54 176.43 771.39 113.95 803.83 235.89 758.84 217.23 672.96 484.7 541.63 454.95 457.03 677.38 348.96 660.25 287.14 801 56.21 791.51"/><path class="cls-33" d="M206.23,769.7a7.85,7.85,0,0,1-1.29.07L-26,760.28a6.53,6.53,0,0,1-5.46-3.34,6.3,6.3,0,0,1,.16-6.31L123.91,496.21a6.68,6.68,0,0,1,6.82-3.07l127.61,21.68L385,318.64a6.67,6.67,0,0,1,7-2.87l111.46,24.58,98.34-176.9-44.74-18.77a6.33,6.33,0,0,1-3.93-5.71,6.45,6.45,0,0,1,3.7-5.92L686.67,70.57a6.69,6.69,0,0,1,5.62-.1,6.39,6.39,0,0,1,3.6,4.18l32.43,121.94a6.36,6.36,0,0,1-2.09,6.5,6.72,6.72,0,0,1-6.88,1.07l-38.29-15.89-83.7,260.66a6.65,6.65,0,0,1-7.8,4.38L463.89,424.84,381.32,641.93a6.66,6.66,0,0,1-7.26,4.14l-103-16.32L211.31,765.84A6.64,6.64,0,0,1,206.23,769.7ZM-14.41,747.92l215.46,8.85,60-136.64a6.66,6.66,0,0,1,7.14-3.84l102.71,16.28,82.7-217.44a6.66,6.66,0,0,1,7.69-4.06l125.37,28.4,84-261.74a6.53,6.53,0,0,1,3.54-3.94,6.68,6.68,0,0,1,5.33-.1l32.65,13.54-27-101.71L575.36,138.37l38.26,16a6.35,6.35,0,0,1,3.57,3.77,6.26,6.26,0,0,1-.45,5.14L512.58,350.69a6.68,6.68,0,0,1-7.26,3.24L393.54,329.28l-126.49,196a6.67,6.67,0,0,1-6.72,2.93L132.84,506.53Z" transform="translate(81.86 37.64)"/><polygon class="cls-34" points="56.21 791.51 211.4 537.09 343.37 559.51 472.35 359.66 588.68 385.31 692.84 197.95 641.54 176.43 771.39 113.95 803.83 235.89 758.84 217.23 672.96 484.7 541.63 454.95 457.03 677.38 348.96 660.25 287.14 801 56.21 791.51"/><path class="cls-34" d="M206.07,768.64a6.34,6.34,0,0,1-1.07.06l-230.93-9.49a5.41,5.41,0,0,1-4.54-2.78,5.21,5.21,0,0,1,.13-5.26L124.85,496.75a5.57,5.57,0,0,1,5.68-2.56L258.86,516l127-196.8a5.58,5.58,0,0,1,5.87-2.39L504,341.57l99.31-178.64L557.48,143.7a5.29,5.29,0,0,1-3.27-4.76A5.4,5.4,0,0,1,557.3,134L687.15,71.52a5.62,5.62,0,0,1,4.68-.08,5.31,5.31,0,0,1,3,3.48l32.43,122a5.28,5.28,0,0,1-1.74,5.41,5.58,5.58,0,0,1-5.73.89l-39.41-16.34L596.32,448.62a5.53,5.53,0,0,1-6.5,3.64L463.21,423.59l-82.92,218a5.54,5.54,0,0,1-6,3.45L270.42,628.56,210.3,765.43A5.52,5.52,0,0,1,206.07,768.64ZM-16.28,748.91l218,9,60.32-137.33a5.55,5.55,0,0,1,5.94-3.2l103.61,16.42,83-218.26a5.54,5.54,0,0,1,6.41-3.39l126.35,28.62L671.76,178a5.46,5.46,0,0,1,3-3.28,5.56,5.56,0,0,1,4.45-.08l34.7,14.39L685.91,84,572.74,138.44l40.44,17a5.36,5.36,0,0,1,3,3.14,5.25,5.25,0,0,1-.38,4.29L511.62,350.19a5.56,5.56,0,0,1-6.05,2.69L393,328.07,266.13,524.69a5.57,5.57,0,0,1-5.6,2.45L132.29,505.35Z" transform="translate(81.86 37.64)"/><polygon class="cls-35" points="56.21 791.51 211.4 537.09 343.37 559.51 472.35 359.66 588.68 385.31 692.84 197.95 641.54 176.43 771.39 113.95 803.83 235.89 758.84 217.23 672.96 484.7 541.63 454.95 457.03 677.38 348.96 660.25 287.14 801 56.21 791.51"/><path class="cls-35" d="M205.91,767.58a4.1,4.1,0,0,1-.86,0l-230.92-9.49a4.33,4.33,0,0,1-3.64-2.22,4.2,4.2,0,0,1,.11-4.21L125.79,497.29a4.45,4.45,0,0,1,4.54-2.05l129.06,21.93L386.8,319.77a4.44,4.44,0,0,1,4.69-1.92l113.08,24.94L604.86,162.41l-46.94-19.69a4.23,4.23,0,0,1-2.61-3.81,4.29,4.29,0,0,1,2.47-3.95L687.63,72.48a4.45,4.45,0,0,1,3.74-.06,4.22,4.22,0,0,1,2.4,2.78L726.2,197.14a4.26,4.26,0,0,1-1.39,4.34,4.49,4.49,0,0,1-4.58.71L679.7,185.38,595.27,448.31a4.41,4.41,0,0,1-5.19,2.91L462.52,422.33,379.27,641.2a4.44,4.44,0,0,1-4.84,2.76L269.76,627.37,209.3,765A4.42,4.42,0,0,1,205.91,767.58ZM-18.15,749.9,202.46,759l60.62-138a4.46,4.46,0,0,1,4.76-2.57L372.33,635l83.34-219.1a4.45,4.45,0,0,1,5.13-2.71L588.15,442l84.66-263.65a4.39,4.39,0,0,1,2.35-2.63,4.5,4.5,0,0,1,3.56-.06l36.76,15.25L686.63,82.45l-116.5,56.06,42.61,17.87a4.24,4.24,0,0,1,2.38,2.51,4.16,4.16,0,0,1-.3,3.43L510.66,349.69a4.46,4.46,0,0,1-4.84,2.15l-113.3-25L265.21,524.13a4.46,4.46,0,0,1-4.49,2l-129-21.91Z" transform="translate(81.86 37.64)"/><polygon class="cls-36" points="56.21 791.51 211.4 537.09 343.37 559.51 472.35 359.66 588.68 385.31 692.84 197.95 641.54 176.43 771.39 113.95 803.83 235.89 758.84 217.23 672.96 484.7 541.63 454.95 457.03 677.38 348.96 660.25 287.14 801 56.21 791.51"/><path class="cls-36" d="M205.75,766.53a3.39,3.39,0,0,1-.64,0l-230.93-9.48a3.24,3.24,0,0,1-2.72-1.67,3.14,3.14,0,0,1,.08-3.16L126.73,497.83a3.35,3.35,0,0,1,3.4-1.54l129.79,22.06,127.8-198a3.36,3.36,0,0,1,3.52-1.44L505.13,344,606.39,161.88l-48-20.14a3.18,3.18,0,0,1-2-2.86,3.23,3.23,0,0,1,1.85-3L688.1,73.44a3.33,3.33,0,0,1,2.81,0,3.19,3.19,0,0,1,1.8,2.09l32.43,121.94a3.18,3.18,0,0,1-1,3.25,3.34,3.34,0,0,1-3.44.53L679,183.93,594.23,448a3.32,3.32,0,0,1-3.9,2.18l-128.5-29.1L378.24,640.84a3.34,3.34,0,0,1-3.62,2.07L269.09,626.18,208.29,764.6A3.3,3.3,0,0,1,205.75,766.53ZM-20,750.9l223.19,9.17,60.93-138.7a3.32,3.32,0,0,1,3.57-1.92L373,636.16,456.7,416.22a3.33,3.33,0,0,1,3.84-2l128.35,29.07,85-264.6a3.28,3.28,0,0,1,1.77-2,3.39,3.39,0,0,1,2.67-.05l38.81,16.1L687.36,80.91,567.52,138.58l44.78,18.78a3.23,3.23,0,0,1,1.79,1.89,3.17,3.17,0,0,1-.23,2.57L509.7,349.18a3.32,3.32,0,0,1-3.63,1.62L392,325.65,264.28,523.56a3.33,3.33,0,0,1-3.36,1.47L131.19,503Z" transform="translate(81.86 37.64)"/><polygon class="cls-37" points="56.21 791.51 211.4 537.09 343.37 559.51 472.35 359.66 588.68 385.31 692.84 197.95 641.54 176.43 771.39 113.95 803.83 235.89 758.84 217.23 672.96 484.7 541.63 454.95 457.03 677.38 348.96 660.25 287.14 801 56.21 791.51"/><path class="cls-37" d="M205.59,765.47a3,3,0,0,1-.43,0L-25.76,756a2.16,2.16,0,0,1-1.82-1.11,2.12,2.12,0,0,1,0-2.11l155.2-254.42a2.22,2.22,0,0,1,2.27-1l130.51,22.17L388.64,320.89a2.23,2.23,0,0,1,2.35-.95l114.7,25.29L607.92,161.36,558.8,140.75a2.11,2.11,0,0,1-1.31-1.9,2.18,2.18,0,0,1,1.24-2L688.58,74.39a2.26,2.26,0,0,1,1.87,0,2.15,2.15,0,0,1,1.2,1.39l32.43,122a2.11,2.11,0,0,1-.69,2.16,2.23,2.23,0,0,1-2.29.36l-42.76-17.73L593.19,447.68a2.21,2.21,0,0,1-2.6,1.46L461.15,419.82,377.22,640.47a2.21,2.21,0,0,1-2.42,1.38L268.43,625l-61.14,139.2A2.21,2.21,0,0,1,205.59,765.47ZM-21.9,751.89l225.77,9.28,61.22-139.39a2.25,2.25,0,0,1,2.38-1.28l106.28,16.85,84-220.76a2.23,2.23,0,0,1,2.57-1.36l129.34,29.3L674.9,179a2.16,2.16,0,0,1,1.17-1.31,2.21,2.21,0,0,1,1.78,0l40.87,17L688.08,79.38,564.91,138.65l47,19.7a2.12,2.12,0,0,1,1.19,1.25,2.08,2.08,0,0,1-.15,1.72L508.74,348.68a2.23,2.23,0,0,1-2.42,1.08L391.51,324.44,263.36,523a2.23,2.23,0,0,1-2.24,1L130.64,501.81Z" transform="translate(81.86 37.64)"/><polygon class="cls-38" points="56.21 791.51 211.4 537.09 343.37 559.51 472.35 359.66 588.68 385.31 692.84 197.95 641.54 176.43 771.39 113.95 803.83 235.89 758.84 217.23 672.96 484.7 541.63 454.95 457.03 677.38 348.96 660.25 287.14 801 56.21 791.51"/><path class="cls-38" d="M205.44,764.42h-.22L-25.7,754.94a1.06,1.06,0,0,1-.91-.55,1.06,1.06,0,0,1,0-1l155.2-254.43a1.1,1.1,0,0,1,1.13-.51L261,520.7,389.57,321.46a1.11,1.11,0,0,1,1.17-.48l115.52,25.47L609.45,160.83l-50.21-21.06a1,1,0,0,1-.65-1,1.08,1.08,0,0,1,.61-1L689.06,75.35a1.08,1.08,0,0,1,.93,0,1,1,0,0,1,.6.69L723,198a1,1,0,0,1-.34,1.08,1.12,1.12,0,0,1-1.15.18L677.66,181,592.14,447.37a1.1,1.1,0,0,1-1.3.73L460.46,418.57,376.19,640.11a1.11,1.11,0,0,1-1.21.69l-107.21-17-61.49,140A1.11,1.11,0,0,1,205.44,764.42ZM-23.77,752.88l228.34,9.38L266.1,622.2a1.1,1.1,0,0,1,1.19-.64l107.17,17L458.75,417a1.11,1.11,0,0,1,1.28-.68L590.36,445.8l85.58-266.52a1.08,1.08,0,0,1,.59-.65,1.1,1.1,0,0,1,.89,0l42.92,17.81L688.81,77.84,562.29,138.72l49.13,20.61a1.07,1.07,0,0,1,.6.63,1,1,0,0,1-.08.85L507.78,348.18a1.12,1.12,0,0,1-1.21.53L391,323.23,262.43,522.44a1.11,1.11,0,0,1-1.12.49l-131.22-22.3Z" transform="translate(81.86 37.64)"/><polygon class="cls-39" points="56.21 791.51 211.4 537.09 343.37 559.51 472.35 359.66 588.68 385.31 692.84 197.95 641.54 176.43 771.39 113.95 803.83 235.89 758.84 217.23 672.96 484.7 541.63 454.95 457.03 677.38 348.96 660.25 287.14 801 56.21 791.51"/></g></g><path class="cls-40" d="M227.8,742.06l-241.67-9.93L146.84,468.65l132,22.44L408,291.1l116.1,25.6L624.19,136.61,568.38,113.2,712.14,44l36.17,136L699.4,159.74,613.76,426.45,482.22,396.66,397.71,618.84,289.45,601.68ZM1.74,723.86l220.19,9,62-141.13L391.8,608.88l84.7-222.67L607.62,415.9l86.12-268.21,41.06,17L706.1,56.82l-116,55.79L637,132.24,528.74,326.88l-116.55-25.7L283.3,500.89,151.42,478.48Z" transform="translate(81.86 37.64)"/></g></g></g></g></svg>