<svg xmlns="http://www.w3.org/2000/svg" viewBox="0 0 510.62 510.62"><defs><style>.cls-1{font-size:122.42px;font-family:OpenSans-ExtraBold, Open Sans;font-weight:800;letter-spacing:0.03em;}.cls-2{fill:#fe1300;}</style></defs><g id="Layer_2" data-name="Layer 2"><g id="Layer_2-2" data-name="Layer 2"><text class="cls-1" transform="translate(56.18 289.83) scale(0.65 1)">RAGGING</text><path class="cls-2" d="M255.31,0C114.31,0,0,114.31,0,255.31S114.31,510.62,255.31,510.62s255.31-114.3,255.31-255.31S396.32,0,255.31,0ZM43.6,255.31C43.6,138.39,138.39,43.6,255.31,43.6c40,0,77.33,11.07,121.58,37.72L110.51,404.57C64.24,359.62,43.6,309.87,43.6,255.31ZM255.31,467c-35.36,0-68.68-8.67-103.71-36L415.1,111.28c34.64,48.21,51.92,94.11,51.92,144C467,372.24,372.24,467,255.31,467Z"/></g></g></svg>